<svg width="381" height="222" viewBox="0 0 381 222" fill="none" xmlns="http://www.w3.org/2000/svg">
<mask id="path-1-outside-1_84_124" maskUnits="userSpaceOnUse" x="0.895508" y="0.100098" width="381" height="222" fill="black">
<rect fill="white" x="0.895508" y="0.100098" width="381" height="222"/>
<path d="M171.3 146.3C166.1 157.3 159.8 167.3 152.4 176.3C145.2 185.3 137.3 193 128.7 199.4C120.3 205.8 111.4 210.7 102 214.1C92.8001 217.5 83.5001 219.2 74.1001 219.2C64.1001 219.2 54.6001 217.1 45.6001 212.9C34.8001 207.7 25.9001 200.2 18.9001 190.4C11.9001 180.6 7.00005 169.4 4.20005 156.8C1.60005 144.2 1.20005 130.7 3.00005 116.3C4.80005 101.9 9.00005 87.7001 15.6001 73.7001C20.8001 62.5001 27.0001 52.5001 34.2001 43.7001C41.4001 34.7001 49.2001 27.1001 57.6001 20.9001C66.2001 14.5001 75.2001 9.60011 84.6001 6.2001C94.0001 2.8001 103.3 1.1001 112.5 1.1001C122.5 1.1001 132.1 3.2001 141.3 7.40011C152.1 12.4001 161 19.8001 168 29.6001C175 39.4001 179.8 50.6001 182.4 63.2001C185 75.8001 185.4 89.3001 183.6 103.7C182 118.1 177.9 132.3 171.3 146.3ZM166.5 144.2C172.9 130.4 176.9 116.7 178.5 103.1C180.3 89.3001 179.9 76.4001 177.3 64.4001C174.7 52.4001 170.1 41.8001 163.5 32.6001C157.1 23.4001 148.9 16.5001 138.9 11.9001C134.9 9.9001 130.7 8.5001 126.3 7.7001C121.9 6.7001 117.4 6.2001 112.8 6.2001C104.2 6.2001 95.5001 7.80011 86.7001 11.0001C77.9001 14.2001 69.4001 18.8001 61.2001 24.8001C53.0001 30.8001 45.4001 38.1001 38.4001 46.7001C31.4001 55.3001 25.4001 65.0001 20.4001 75.8001C14.0001 89.6001 9.90005 103.4 8.10005 117.2C6.50005 130.8 7.00005 143.6 9.60005 155.6C12.2001 167.6 16.7001 178.2 23.1001 187.4C29.7001 196.6 37.9001 203.5 47.7001 208.1C55.9001 211.9 64.8001 213.8 74.4001 213.8C83.0001 213.8 91.7001 212.2 100.5 209C109.3 205.8 117.7 201.2 125.7 195.2C133.9 189.2 141.5 181.9 148.5 173.3C155.5 164.7 161.5 155 166.5 144.2ZM117.3 76.4001C116.9 76.0001 116.2 75.8001 115.2 75.8001C113.2 75.8001 110.7 76.9001 107.7 79.1001C104.7 81.1001 101.7 83.4001 98.7001 86.0001C95.7001 88.6001 93.0001 91.2001 90.6001 93.8001C88.2001 96.2001 86.7001 97.9001 86.1001 98.9001C85.3001 99.9001 83.6001 102.1 81.0001 105.5C78.6001 108.7 76.2001 112.3 73.8001 116.3C71.6001 120.1 69.9001 123.7 68.7001 127.1C67.5001 130.5 67.6001 132.8 69.0001 134C70.4001 135.2 74.1001 134.1 80.1001 130.7C86.1001 127.1 93.0001 120.6 100.8 111.2C108.6 102.2 113.6 94.5001 115.8 88.1001C118.2 81.5001 118.7 77.6001 117.3 76.4001ZM120.9 72.8001C122.7 74.2001 123.5 76.5001 123.3 79.7001C123.1 82.7001 122.2 86.2001 120.6 90.2001C119 94.0001 116.8 98.1001 114 102.5C111.2 106.7 108 110.8 104.4 114.8C101.6 118 98.6001 121.2 95.4001 124.4C92.4001 127.4 89.4001 130 86.4001 132.2C83.4001 134.4 80.5001 136.2 77.7001 137.6C75.1001 139 72.7001 139.7 70.5001 139.7C68.9001 139.7 67.4001 139.2 66.0001 138.2C64.0001 136.6 63.1001 134.3 63.3001 131.3C63.5001 128.1 64.4001 124.6 66.0001 120.8C67.6001 116.8 69.8001 112.7 72.6001 108.5C75.4001 104.1 78.5001 99.9001 81.9001 95.9001C87.7001 89.1001 93.7001 83.3001 99.9001 78.5001C106.1 73.5001 111.4 71.0001 115.8 71.0001C117.8 71.0001 119.5 71.6001 120.9 72.8001Z"/>
<path fill-rule="evenodd" clip-rule="evenodd" d="M166.5 144.2C172.9 130.4 176.9 116.7 178.5 103.1C180.3 89.3001 179.9 76.4001 177.3 64.4001C174.7 52.4001 170.1 41.8001 163.5 32.6001C157.1 23.4001 148.9 16.5001 138.9 11.9001C134.9 9.9001 130.7 8.5001 126.3 7.7001C121.9 6.7001 117.4 6.2001 112.8 6.2001C104.2 6.2001 95.5001 7.80011 86.7001 11.0001C77.9001 14.2001 69.4001 18.8001 61.2001 24.8001C53.0001 30.8001 45.4001 38.1001 38.4001 46.7001C31.4001 55.3001 25.4001 65.0001 20.4001 75.8001C14.0001 89.6001 9.90005 103.4 8.10005 117.2C6.50005 130.8 7.00005 143.6 9.60005 155.6C12.2001 167.6 16.7001 178.2 23.1001 187.4C29.7001 196.6 37.9001 203.5 47.7001 208.1C55.9001 211.9 64.8001 213.8 74.4001 213.8C83.0001 213.8 91.7001 212.2 100.5 209C109.3 205.8 117.7 201.2 125.7 195.2C133.9 189.2 141.5 181.9 148.5 173.3C155.5 164.7 161.5 155 166.5 144.2ZM123.3 79.7001C123.5 76.5001 122.7 74.2001 120.9 72.8001C119.5 71.6001 117.8 71.0001 115.8 71.0001C111.4 71.0001 106.1 73.5001 99.9001 78.5001C93.7001 83.3001 87.7001 89.1001 81.9001 95.9001C78.5001 99.9001 75.4001 104.1 72.6001 108.5C69.8001 112.7 67.6001 116.8 66.0001 120.8C64.4001 124.6 63.5001 128.1 63.3001 131.3C63.1001 134.3 64.0001 136.6 66.0001 138.2C67.4001 139.2 68.9001 139.7 70.5001 139.7C72.7001 139.7 75.1001 139 77.7001 137.6C80.5001 136.2 83.4001 134.4 86.4001 132.2C89.4001 130 92.4001 127.4 95.4001 124.4C98.6001 121.2 101.6 118 104.4 114.8C108 110.8 111.2 106.7 114 102.5C116.8 98.1001 119 94.0001 120.6 90.2001C122.2 86.2001 123.1 82.7001 123.3 79.7001Z"/>
<path d="M373.158 32.0001C372.958 30.2001 372.358 28.2001 371.358 26.0001C370.358 23.8001 368.958 21.7001 367.158 19.7001C365.358 17.7001 363.058 16.0001 360.258 14.6001C357.658 13.0001 354.458 12.0001 350.658 11.6001C346.858 11.0001 343.358 11.1001 340.158 11.9001C336.958 12.5001 334.158 13.4001 331.758 14.6001C329.358 15.6001 327.358 16.8001 325.758 18.2001C324.358 19.4001 323.358 20.3001 322.758 20.9001C320.158 23.7001 317.758 27.0001 315.558 30.8001C313.558 34.4001 311.858 38.1001 310.458 41.9001C309.258 45.7001 308.258 49.2001 307.458 52.4001C306.658 55.4001 306.158 57.7001 305.958 59.3001L305.358 61.7001C305.303 62.1371 305.196 62.5219 305.037 62.8545C305.885 64.7697 306.692 66.6849 307.458 68.6001C308.858 71.6001 310.358 74.6001 311.958 77.6001C313.158 80.2001 314.258 82.8001 315.258 85.4001C316.458 88.0001 317.558 90.5001 318.558 92.9001C319.358 94.3001 318.958 95.4001 317.358 96.2001C315.758 97.0001 314.758 96.6001 314.358 95.0001C313.158 92.4001 311.958 89.9001 310.758 87.5001C309.758 84.9001 308.658 82.3001 307.458 79.7001C306.058 76.5001 304.658 73.4001 303.258 70.4001C302.058 67.4001 300.658 64.5001 299.058 61.7001C298.864 61.3607 298.741 61.039 298.688 60.7349C293.896 51.5268 289.72 43.5485 286.158 36.8001C282.558 29.6001 279.358 24.4001 276.558 21.2001C274.758 19.0001 272.558 17.1001 269.958 15.5001C267.358 13.7001 264.458 12.3001 261.258 11.3001C258.058 10.3001 254.658 9.80011 251.058 9.80011C247.658 9.80011 243.958 10.5001 239.958 11.9001C234.158 13.9001 229.458 16.7001 225.858 20.3001C222.258 23.9001 219.358 28.1001 217.158 32.9001C214.958 37.7001 213.158 43.0001 211.758 48.8001C210.558 54.4001 209.358 60.3001 208.158 66.5001C206.558 74.7001 204.958 83.6001 203.358 93.2001C201.758 102.6 200.258 112.3 198.858 122.3L195.258 152.3C194.258 162.3 193.458 171.9 192.858 181.1C192.658 184.9 192.958 188.7 193.758 192.5C194.558 196.3 195.858 199.7 197.658 202.7C199.658 205.7 201.958 208.3 204.558 210.5C207.358 212.7 210.558 214.2 214.158 215C218.758 216 223.058 216 227.058 215C231.258 213.8 234.958 212.1 238.158 209.9C241.558 207.7 244.358 205.3 246.558 202.7C248.958 199.9 250.658 197.4 251.658 195.2C254.058 190 255.958 185.3 257.358 181.1C258.677 177.143 259.907 172.83 261.049 168.162C258.631 167.987 256.301 167.9 254.058 167.9C251.658 167.9 248.758 167.4 245.358 166.4C241.758 165.4 238.458 163.8 235.458 161.6C234.058 160.8 233.858 159.7 234.858 158.3C235.658 157.1 236.758 156.9 238.158 157.7C240.758 159.7 243.558 161 246.558 161.6C249.558 162.4 252.058 162.9 254.058 163.1C256.058 163.1 258.158 163.2 260.358 163.4C259.958 162.4 259.558 161.6 259.158 161C258.958 160.2 258.658 159.4 258.258 158.6L253.758 149.6C252.558 146.6 251.158 143.6 249.558 140.6C248.958 139.4 249.358 138.4 250.758 137.6C252.158 137 253.158 137.3 253.758 138.5C255.358 141.5 256.858 144.5 258.258 147.5C259.658 150.3 261.058 153.3 262.458 156.5L266.058 164.3C266.825 165.834 267.551 167.409 268.237 169.025C270.73 174.109 273.004 178.534 275.058 182.3C277.458 186.5 279.758 190.2 281.958 193.4C284.158 196.6 286.358 199.4 288.558 201.8L296.058 209.3C297.658 210.5 299.558 211.7 301.758 212.9C303.958 214.1 306.458 215 309.258 215.6C312.258 216.2 315.358 216.2 318.558 215.6C321.958 215.2 325.558 214 329.358 212C334.558 209.4 339.058 205 342.858 198.8C346.858 192.4 350.358 184.8 353.358 176C356.358 167.2 359.058 157.5 361.458 146.9C363.858 136.1 365.958 124.9 367.758 113.3C369.758 101.3 371.258 91.2001 372.258 83.0001C373.458 74.8001 374.258 67.7001 374.658 61.7001C375.058 55.7001 375.158 50.4001 374.958 45.8001C374.758 41.2001 374.158 36.6001 373.158 32.0001Z"/>
<path fill-rule="evenodd" clip-rule="evenodd" d="M371.358 26.0001C372.358 28.2001 372.958 30.2001 373.158 32.0001C374.158 36.6001 374.758 41.2001 374.958 45.8001C375.158 50.4001 375.058 55.7001 374.658 61.7001C374.258 67.7001 373.458 74.8001 372.258 83.0001C371.258 91.2001 369.758 101.3 367.758 113.3C365.958 124.9 363.858 136.1 361.458 146.9C359.058 157.5 356.358 167.2 353.358 176C350.358 184.8 346.858 192.4 342.858 198.8C339.058 205 334.558 209.4 329.358 212C325.558 214 321.958 215.2 318.558 215.6C315.358 216.2 312.258 216.2 309.258 215.6C306.458 215 303.958 214.1 301.758 212.9C299.558 211.7 297.658 210.5 296.058 209.3L288.558 201.8C286.358 199.4 284.158 196.6 281.958 193.4C279.758 190.2 277.458 186.5 275.058 182.3C273.004 178.534 270.73 174.109 268.237 169.025C267.551 167.409 266.825 165.834 266.058 164.3L262.458 156.5C261.058 153.3 259.658 150.3 258.258 147.5C256.858 144.5 255.358 141.5 253.758 138.5C253.158 137.3 252.158 137 250.758 137.6C249.358 138.4 248.958 139.4 249.558 140.6C251.158 143.6 252.558 146.6 253.758 149.6L258.258 158.6C258.658 159.4 258.958 160.2 259.158 161C259.558 161.6 259.958 162.4 260.358 163.4C258.158 163.2 256.058 163.1 254.058 163.1C252.058 162.9 249.558 162.4 246.558 161.6C243.558 161 240.758 159.7 238.158 157.7C236.758 156.9 235.658 157.1 234.858 158.3C233.858 159.7 234.058 160.8 235.458 161.6C238.458 163.8 241.758 165.4 245.358 166.4C248.758 167.4 251.658 167.9 254.058 167.9C256.301 167.9 258.631 167.987 261.049 168.162C259.907 172.83 258.677 177.143 257.358 181.1C255.958 185.3 254.058 190 251.658 195.2C250.658 197.4 248.958 199.9 246.558 202.7C244.358 205.3 241.558 207.7 238.158 209.9C234.958 212.1 231.258 213.8 227.058 215C223.058 216 218.758 216 214.158 215C210.558 214.2 207.358 212.7 204.558 210.5C201.958 208.3 199.658 205.7 197.658 202.7C195.858 199.7 194.558 196.3 193.758 192.5C192.958 188.7 192.658 184.9 192.858 181.1C193.458 171.9 194.258 162.3 195.258 152.3L198.858 122.3C200.258 112.3 201.758 102.6 203.358 93.2001C204.958 83.6001 206.558 74.7001 208.158 66.5001C209.358 60.3001 210.558 54.4001 211.758 48.8001C213.158 43.0001 214.958 37.7001 217.158 32.9001C219.358 28.1001 222.258 23.9001 225.858 20.3001C229.458 16.7001 234.158 13.9001 239.958 11.9001C243.958 10.5001 247.658 9.80011 251.058 9.80011C254.658 9.80011 258.058 10.3001 261.258 11.3001C264.458 12.3001 267.358 13.7001 269.958 15.5001C272.558 17.1001 274.758 19.0001 276.558 21.2001C279.358 24.4001 282.558 29.6001 286.158 36.8001C289.72 43.5485 293.896 51.5268 298.688 60.7349C298.741 61.039 298.864 61.3607 299.058 61.7001C300.658 64.5001 302.058 67.4001 303.258 70.4001C304.658 73.4001 306.058 76.5001 307.458 79.7001C308.658 82.3001 309.758 84.9001 310.758 87.5001C311.958 89.9001 313.158 92.4001 314.358 95.0001C314.758 96.6001 315.758 97.0001 317.358 96.2001C318.958 95.4001 319.358 94.3001 318.558 92.9001C317.558 90.5001 316.458 88.0001 315.258 85.4001C314.258 82.8001 313.158 80.2001 311.958 77.6001C310.358 74.6001 308.858 71.6001 307.458 68.6001C306.692 66.6849 305.885 64.7697 305.037 62.8545C305.196 62.5219 305.303 62.1371 305.358 61.7001L305.958 59.3001C306.158 57.7001 306.658 55.4001 307.458 52.4001C308.258 49.2001 309.258 45.7001 310.458 41.9001C311.858 38.1001 313.558 34.4001 315.558 30.8001C317.758 27.0001 320.158 23.7001 322.758 20.9001C323.358 20.3001 324.358 19.4001 325.758 18.2001C327.358 16.8001 329.358 15.6001 331.758 14.6001C334.158 13.4001 336.958 12.5001 340.158 11.9001C343.358 11.1001 346.858 11.0001 350.658 11.6001C354.458 12.0001 357.658 13.0001 360.258 14.6001C363.058 16.0001 365.358 17.7001 367.158 19.7001C368.958 21.7001 370.358 23.8001 371.358 26.0001ZM305.037 62.8545C304.557 61.7697 304.064 60.6849 303.558 59.6001C302.958 58.4001 301.858 58.0001 300.258 58.4001C299.046 59.0062 298.522 59.7845 298.688 60.7349C299.008 61.3511 299.332 61.9729 299.658 62.6001C300.258 64.0001 301.258 64.6001 302.658 64.4001C303.821 64.2547 304.614 63.7395 305.037 62.8545ZM264.824 172.836C263.631 177.583 262.243 181.938 260.658 185.9C259.258 189.9 257.758 193.7 256.158 197.3C254.958 199.9 253.058 202.8 250.458 206C247.858 209 244.658 211.7 240.858 214.1C237.058 216.5 232.758 218.3 227.958 219.5C223.358 220.7 218.458 220.7 213.258 219.5C204.858 217.5 198.358 212.8 193.758 205.4C189.358 197.8 187.458 189.6 188.058 180.8C188.658 171.6 189.458 162 190.458 152C191.658 141.8 192.858 131.7 194.058 121.7C195.458 111.7 196.958 101.9 198.558 92.3001C200.158 82.7001 201.758 73.8001 203.358 65.6001C204.558 59.6001 205.858 53.6001 207.258 47.6001C208.658 41.6001 210.558 36.0001 212.958 30.8001C215.358 25.6001 218.558 21.0001 222.558 17.0001C226.558 12.8001 231.858 9.6001 238.458 7.40011C242.858 5.8001 247.058 5.0001 251.058 5.0001C255.258 5.0001 259.158 5.60011 262.758 6.80011C266.358 8.00011 269.658 9.60011 272.658 11.6001C275.658 13.4001 278.158 15.5001 280.158 17.9001C283.158 21.3001 286.458 26.4001 290.058 33.2001C293.658 40.0001 297.458 47.6001 301.458 56.0001C301.858 54.2001 302.458 51.7001 303.258 48.5001C304.258 45.3001 305.458 41.9001 306.858 38.3001C308.458 34.5001 310.258 30.8001 312.258 27.2001C314.258 23.6001 316.558 20.4001 319.158 17.6001C319.758 16.8001 320.958 15.7001 322.758 14.3001C324.558 12.9001 326.758 11.6001 329.358 10.4001C332.158 9.00011 335.358 7.90011 338.958 7.10011C342.758 6.30011 346.858 6.20011 351.258 6.80011C355.658 7.40011 359.458 8.6001 362.658 10.4001C365.858 12.2001 368.458 14.3001 370.458 16.7001C372.658 18.9001 374.358 21.3001 375.558 23.9001C376.758 26.5001 377.558 28.9001 377.958 31.1001C378.958 35.9001 379.558 40.7001 379.758 45.5001C380.158 50.3001 380.058 55.8001 379.458 62.0001C379.058 68.0001 378.258 75.2001 377.058 83.6001C376.058 92.0001 374.558 102.2 372.558 114.2C370.758 125.4 368.658 136.5 366.258 147.5C363.858 158.3 361.058 168.3 357.858 177.5C354.658 186.7 350.858 194.8 346.458 201.8C342.258 208.6 337.258 213.5 331.458 216.5C327.258 218.7 323.158 220 319.158 220.4C315.358 221 311.758 221 308.358 220.4C305.158 219.8 302.258 218.8 299.658 217.4C297.058 216 294.858 214.5 293.058 212.9C290.258 210.5 287.658 208.1 285.258 205.7C283.058 203.1 280.858 200.3 278.658 197.3C276.658 194.3 274.558 190.9 272.358 187.1C270.376 183.497 268.151 179.245 265.682 174.343C265.499 174.139 265.324 173.891 265.158 173.6C265.053 173.339 264.942 173.084 264.824 172.836Z"/>
<path d="M299.658 62.6001C300.258 64.0001 301.258 64.6001 302.658 64.4001C303.821 64.2547 304.614 63.7395 305.037 62.8545C304.557 61.7697 304.064 60.6849 303.558 59.6001C302.958 58.4001 301.858 58.0001 300.258 58.4001C299.046 59.0062 298.522 59.7845 298.688 60.7349C299.008 61.3511 299.332 61.9729 299.658 62.6001Z"/>
</mask>
<path d="M171.3 146.3C166.1 157.3 159.8 167.3 152.4 176.3C145.2 185.3 137.3 193 128.7 199.4C120.3 205.8 111.4 210.7 102 214.1C92.8001 217.5 83.5001 219.2 74.1001 219.2C64.1001 219.2 54.6001 217.1 45.6001 212.9C34.8001 207.7 25.9001 200.2 18.9001 190.4C11.9001 180.6 7.00005 169.4 4.20005 156.8C1.60005 144.2 1.20005 130.7 3.00005 116.3C4.80005 101.9 9.00005 87.7001 15.6001 73.7001C20.8001 62.5001 27.0001 52.5001 34.2001 43.7001C41.4001 34.7001 49.2001 27.1001 57.6001 20.9001C66.2001 14.5001 75.2001 9.60011 84.6001 6.2001C94.0001 2.8001 103.3 1.1001 112.5 1.1001C122.5 1.1001 132.1 3.2001 141.3 7.40011C152.1 12.4001 161 19.8001 168 29.6001C175 39.4001 179.8 50.6001 182.4 63.2001C185 75.8001 185.4 89.3001 183.6 103.7C182 118.1 177.9 132.3 171.3 146.3ZM166.5 144.2C172.9 130.4 176.9 116.7 178.5 103.1C180.3 89.3001 179.9 76.4001 177.3 64.4001C174.7 52.4001 170.1 41.8001 163.5 32.6001C157.1 23.4001 148.9 16.5001 138.9 11.9001C134.9 9.9001 130.7 8.5001 126.3 7.7001C121.9 6.7001 117.4 6.2001 112.8 6.2001C104.2 6.2001 95.5001 7.80011 86.7001 11.0001C77.9001 14.2001 69.4001 18.8001 61.2001 24.8001C53.0001 30.8001 45.4001 38.1001 38.4001 46.7001C31.4001 55.3001 25.4001 65.0001 20.4001 75.8001C14.0001 89.6001 9.90005 103.4 8.10005 117.2C6.50005 130.8 7.00005 143.6 9.60005 155.6C12.2001 167.6 16.7001 178.2 23.1001 187.4C29.7001 196.6 37.9001 203.5 47.7001 208.1C55.9001 211.9 64.8001 213.8 74.4001 213.8C83.0001 213.8 91.7001 212.2 100.5 209C109.3 205.8 117.7 201.2 125.7 195.2C133.9 189.2 141.5 181.9 148.5 173.3C155.5 164.7 161.5 155 166.5 144.2ZM117.3 76.4001C116.9 76.0001 116.2 75.8001 115.2 75.8001C113.2 75.8001 110.7 76.9001 107.7 79.1001C104.7 81.1001 101.7 83.4001 98.7001 86.0001C95.7001 88.6001 93.0001 91.2001 90.6001 93.8001C88.2001 96.2001 86.7001 97.9001 86.1001 98.9001C85.3001 99.9001 83.6001 102.1 81.0001 105.5C78.6001 108.7 76.2001 112.3 73.8001 116.3C71.6001 120.1 69.9001 123.7 68.7001 127.1C67.5001 130.5 67.6001 132.8 69.0001 134C70.4001 135.2 74.1001 134.1 80.1001 130.7C86.1001 127.1 93.0001 120.6 100.8 111.2C108.6 102.2 113.6 94.5001 115.8 88.1001C118.2 81.5001 118.7 77.6001 117.3 76.4001ZM120.9 72.8001C122.7 74.2001 123.5 76.5001 123.3 79.7001C123.1 82.7001 122.2 86.2001 120.6 90.2001C119 94.0001 116.8 98.1001 114 102.5C111.2 106.7 108 110.8 104.4 114.8C101.6 118 98.6001 121.2 95.4001 124.4C92.4001 127.4 89.4001 130 86.4001 132.2C83.4001 134.4 80.5001 136.2 77.7001 137.6C75.1001 139 72.7001 139.7 70.5001 139.7C68.9001 139.7 67.4001 139.2 66.0001 138.2C64.0001 136.6 63.1001 134.3 63.3001 131.3C63.5001 128.1 64.4001 124.6 66.0001 120.8C67.6001 116.8 69.8001 112.7 72.6001 108.5C75.4001 104.1 78.5001 99.9001 81.9001 95.9001C87.7001 89.1001 93.7001 83.3001 99.9001 78.5001C106.1 73.5001 111.4 71.0001 115.8 71.0001C117.8 71.0001 119.5 71.6001 120.9 72.8001Z" fill="black"/>
<path fill-rule="evenodd" clip-rule="evenodd" d="M166.5 144.2C172.9 130.4 176.9 116.7 178.5 103.1C180.3 89.3001 179.9 76.4001 177.3 64.4001C174.7 52.4001 170.1 41.8001 163.5 32.6001C157.1 23.4001 148.9 16.5001 138.9 11.9001C134.9 9.9001 130.7 8.5001 126.3 7.7001C121.9 6.7001 117.4 6.2001 112.8 6.2001C104.2 6.2001 95.5001 7.80011 86.7001 11.0001C77.9001 14.2001 69.4001 18.8001 61.2001 24.8001C53.0001 30.8001 45.4001 38.1001 38.4001 46.7001C31.4001 55.3001 25.4001 65.0001 20.4001 75.8001C14.0001 89.6001 9.90005 103.4 8.10005 117.2C6.50005 130.8 7.00005 143.6 9.60005 155.6C12.2001 167.6 16.7001 178.2 23.1001 187.4C29.7001 196.6 37.9001 203.5 47.7001 208.1C55.9001 211.9 64.8001 213.8 74.4001 213.8C83.0001 213.8 91.7001 212.2 100.5 209C109.3 205.8 117.7 201.2 125.7 195.2C133.9 189.2 141.5 181.9 148.5 173.3C155.5 164.7 161.5 155 166.5 144.2ZM123.3 79.7001C123.5 76.5001 122.7 74.2001 120.9 72.8001C119.5 71.6001 117.8 71.0001 115.8 71.0001C111.4 71.0001 106.1 73.5001 99.9001 78.5001C93.7001 83.3001 87.7001 89.1001 81.9001 95.9001C78.5001 99.9001 75.4001 104.1 72.6001 108.5C69.8001 112.7 67.6001 116.8 66.0001 120.8C64.4001 124.6 63.5001 128.1 63.3001 131.3C63.1001 134.3 64.0001 136.6 66.0001 138.2C67.4001 139.2 68.9001 139.7 70.5001 139.7C72.7001 139.7 75.1001 139 77.7001 137.6C80.5001 136.2 83.4001 134.4 86.4001 132.2C89.4001 130 92.4001 127.4 95.4001 124.4C98.6001 121.2 101.6 118 104.4 114.8C108 110.8 111.2 106.7 114 102.5C116.8 98.1001 119 94.0001 120.6 90.2001C122.2 86.2001 123.1 82.7001 123.3 79.7001Z" fill="#D93304"/>
<path d="M373.158 32.0001C372.958 30.2001 372.358 28.2001 371.358 26.0001C370.358 23.8001 368.958 21.7001 367.158 19.7001C365.358 17.7001 363.058 16.0001 360.258 14.6001C357.658 13.0001 354.458 12.0001 350.658 11.6001C346.858 11.0001 343.358 11.1001 340.158 11.9001C336.958 12.5001 334.158 13.4001 331.758 14.6001C329.358 15.6001 327.358 16.8001 325.758 18.2001C324.358 19.4001 323.358 20.3001 322.758 20.9001C320.158 23.7001 317.758 27.0001 315.558 30.8001C313.558 34.4001 311.858 38.1001 310.458 41.9001C309.258 45.7001 308.258 49.2001 307.458 52.4001C306.658 55.4001 306.158 57.7001 305.958 59.3001L305.358 61.7001C305.303 62.1371 305.196 62.5219 305.037 62.8545C305.885 64.7697 306.692 66.6849 307.458 68.6001C308.858 71.6001 310.358 74.6001 311.958 77.6001C313.158 80.2001 314.258 82.8001 315.258 85.4001C316.458 88.0001 317.558 90.5001 318.558 92.9001C319.358 94.3001 318.958 95.4001 317.358 96.2001C315.758 97.0001 314.758 96.6001 314.358 95.0001C313.158 92.4001 311.958 89.9001 310.758 87.5001C309.758 84.9001 308.658 82.3001 307.458 79.7001C306.058 76.5001 304.658 73.4001 303.258 70.4001C302.058 67.4001 300.658 64.5001 299.058 61.7001C298.864 61.3607 298.741 61.039 298.688 60.7349C293.896 51.5268 289.72 43.5485 286.158 36.8001C282.558 29.6001 279.358 24.4001 276.558 21.2001C274.758 19.0001 272.558 17.1001 269.958 15.5001C267.358 13.7001 264.458 12.3001 261.258 11.3001C258.058 10.3001 254.658 9.80011 251.058 9.80011C247.658 9.80011 243.958 10.5001 239.958 11.9001C234.158 13.9001 229.458 16.7001 225.858 20.3001C222.258 23.9001 219.358 28.1001 217.158 32.9001C214.958 37.7001 213.158 43.0001 211.758 48.8001C210.558 54.4001 209.358 60.3001 208.158 66.5001C206.558 74.7001 204.958 83.6001 203.358 93.2001C201.758 102.6 200.258 112.3 198.858 122.3L195.258 152.3C194.258 162.3 193.458 171.9 192.858 181.1C192.658 184.9 192.958 188.7 193.758 192.5C194.558 196.3 195.858 199.7 197.658 202.7C199.658 205.7 201.958 208.3 204.558 210.5C207.358 212.7 210.558 214.2 214.158 215C218.758 216 223.058 216 227.058 215C231.258 213.8 234.958 212.1 238.158 209.9C241.558 207.7 244.358 205.3 246.558 202.7C248.958 199.9 250.658 197.4 251.658 195.2C254.058 190 255.958 185.3 257.358 181.1C258.677 177.143 259.907 172.83 261.049 168.162C258.631 167.987 256.301 167.9 254.058 167.9C251.658 167.9 248.758 167.4 245.358 166.4C241.758 165.4 238.458 163.8 235.458 161.6C234.058 160.8 233.858 159.7 234.858 158.3C235.658 157.1 236.758 156.9 238.158 157.7C240.758 159.7 243.558 161 246.558 161.6C249.558 162.4 252.058 162.9 254.058 163.1C256.058 163.1 258.158 163.2 260.358 163.4C259.958 162.4 259.558 161.6 259.158 161C258.958 160.2 258.658 159.4 258.258 158.6L253.758 149.6C252.558 146.6 251.158 143.6 249.558 140.6C248.958 139.4 249.358 138.4 250.758 137.6C252.158 137 253.158 137.3 253.758 138.5C255.358 141.5 256.858 144.5 258.258 147.5C259.658 150.3 261.058 153.3 262.458 156.5L266.058 164.3C266.825 165.834 267.551 167.409 268.237 169.025C270.73 174.109 273.004 178.534 275.058 182.3C277.458 186.5 279.758 190.2 281.958 193.4C284.158 196.6 286.358 199.4 288.558 201.8L296.058 209.3C297.658 210.5 299.558 211.7 301.758 212.9C303.958 214.1 306.458 215 309.258 215.6C312.258 216.2 315.358 216.2 318.558 215.6C321.958 215.2 325.558 214 329.358 212C334.558 209.4 339.058 205 342.858 198.8C346.858 192.4 350.358 184.8 353.358 176C356.358 167.2 359.058 157.5 361.458 146.9C363.858 136.1 365.958 124.9 367.758 113.3C369.758 101.3 371.258 91.2001 372.258 83.0001C373.458 74.8001 374.258 67.7001 374.658 61.7001C375.058 55.7001 375.158 50.4001 374.958 45.8001C374.758 41.2001 374.158 36.6001 373.158 32.0001Z" fill="#D93304"/>
<path fill-rule="evenodd" clip-rule="evenodd" d="M371.358 26.0001C372.358 28.2001 372.958 30.2001 373.158 32.0001C374.158 36.6001 374.758 41.2001 374.958 45.8001C375.158 50.4001 375.058 55.7001 374.658 61.7001C374.258 67.7001 373.458 74.8001 372.258 83.0001C371.258 91.2001 369.758 101.3 367.758 113.3C365.958 124.9 363.858 136.1 361.458 146.9C359.058 157.5 356.358 167.2 353.358 176C350.358 184.8 346.858 192.4 342.858 198.8C339.058 205 334.558 209.4 329.358 212C325.558 214 321.958 215.2 318.558 215.6C315.358 216.2 312.258 216.2 309.258 215.6C306.458 215 303.958 214.1 301.758 212.9C299.558 211.7 297.658 210.5 296.058 209.3L288.558 201.8C286.358 199.4 284.158 196.6 281.958 193.4C279.758 190.2 277.458 186.5 275.058 182.3C273.004 178.534 270.73 174.109 268.237 169.025C267.551 167.409 266.825 165.834 266.058 164.3L262.458 156.5C261.058 153.3 259.658 150.3 258.258 147.5C256.858 144.5 255.358 141.5 253.758 138.5C253.158 137.3 252.158 137 250.758 137.6C249.358 138.4 248.958 139.4 249.558 140.6C251.158 143.6 252.558 146.6 253.758 149.6L258.258 158.6C258.658 159.4 258.958 160.2 259.158 161C259.558 161.6 259.958 162.4 260.358 163.4C258.158 163.2 256.058 163.1 254.058 163.1C252.058 162.9 249.558 162.4 246.558 161.6C243.558 161 240.758 159.7 238.158 157.7C236.758 156.9 235.658 157.1 234.858 158.3C233.858 159.7 234.058 160.8 235.458 161.6C238.458 163.8 241.758 165.4 245.358 166.4C248.758 167.4 251.658 167.9 254.058 167.9C256.301 167.9 258.631 167.987 261.049 168.162C259.907 172.83 258.677 177.143 257.358 181.1C255.958 185.3 254.058 190 251.658 195.2C250.658 197.4 248.958 199.9 246.558 202.7C244.358 205.3 241.558 207.7 238.158 209.9C234.958 212.1 231.258 213.8 227.058 215C223.058 216 218.758 216 214.158 215C210.558 214.2 207.358 212.7 204.558 210.5C201.958 208.3 199.658 205.7 197.658 202.7C195.858 199.7 194.558 196.3 193.758 192.5C192.958 188.7 192.658 184.9 192.858 181.1C193.458 171.9 194.258 162.3 195.258 152.3L198.858 122.3C200.258 112.3 201.758 102.6 203.358 93.2001C204.958 83.6001 206.558 74.7001 208.158 66.5001C209.358 60.3001 210.558 54.4001 211.758 48.8001C213.158 43.0001 214.958 37.7001 217.158 32.9001C219.358 28.1001 222.258 23.9001 225.858 20.3001C229.458 16.7001 234.158 13.9001 239.958 11.9001C243.958 10.5001 247.658 9.80011 251.058 9.80011C254.658 9.80011 258.058 10.3001 261.258 11.3001C264.458 12.3001 267.358 13.7001 269.958 15.5001C272.558 17.1001 274.758 19.0001 276.558 21.2001C279.358 24.4001 282.558 29.6001 286.158 36.8001C289.72 43.5485 293.896 51.5268 298.688 60.7349C298.741 61.039 298.864 61.3607 299.058 61.7001C300.658 64.5001 302.058 67.4001 303.258 70.4001C304.658 73.4001 306.058 76.5001 307.458 79.7001C308.658 82.3001 309.758 84.9001 310.758 87.5001C311.958 89.9001 313.158 92.4001 314.358 95.0001C314.758 96.6001 315.758 97.0001 317.358 96.2001C318.958 95.4001 319.358 94.3001 318.558 92.9001C317.558 90.5001 316.458 88.0001 315.258 85.4001C314.258 82.8001 313.158 80.2001 311.958 77.6001C310.358 74.6001 308.858 71.6001 307.458 68.6001C306.692 66.6849 305.885 64.7697 305.037 62.8545C305.196 62.5219 305.303 62.1371 305.358 61.7001L305.958 59.3001C306.158 57.7001 306.658 55.4001 307.458 52.4001C308.258 49.2001 309.258 45.7001 310.458 41.9001C311.858 38.1001 313.558 34.4001 315.558 30.8001C317.758 27.0001 320.158 23.7001 322.758 20.9001C323.358 20.3001 324.358 19.4001 325.758 18.2001C327.358 16.8001 329.358 15.6001 331.758 14.6001C334.158 13.4001 336.958 12.5001 340.158 11.9001C343.358 11.1001 346.858 11.0001 350.658 11.6001C354.458 12.0001 357.658 13.0001 360.258 14.6001C363.058 16.0001 365.358 17.7001 367.158 19.7001C368.958 21.7001 370.358 23.8001 371.358 26.0001ZM305.037 62.8545C304.557 61.7697 304.064 60.6849 303.558 59.6001C302.958 58.4001 301.858 58.0001 300.258 58.4001C299.046 59.0062 298.522 59.7845 298.688 60.7349C299.008 61.3511 299.332 61.9729 299.658 62.6001C300.258 64.0001 301.258 64.6001 302.658 64.4001C303.821 64.2547 304.614 63.7395 305.037 62.8545ZM264.824 172.836C263.631 177.583 262.243 181.938 260.658 185.9C259.258 189.9 257.758 193.7 256.158 197.3C254.958 199.9 253.058 202.8 250.458 206C247.858 209 244.658 211.7 240.858 214.1C237.058 216.5 232.758 218.3 227.958 219.5C223.358 220.7 218.458 220.7 213.258 219.5C204.858 217.5 198.358 212.8 193.758 205.4C189.358 197.8 187.458 189.6 188.058 180.8C188.658 171.6 189.458 162 190.458 152C191.658 141.8 192.858 131.7 194.058 121.7C195.458 111.7 196.958 101.9 198.558 92.3001C200.158 82.7001 201.758 73.8001 203.358 65.6001C204.558 59.6001 205.858 53.6001 207.258 47.6001C208.658 41.6001 210.558 36.0001 212.958 30.8001C215.358 25.6001 218.558 21.0001 222.558 17.0001C226.558 12.8001 231.858 9.6001 238.458 7.40011C242.858 5.8001 247.058 5.0001 251.058 5.0001C255.258 5.0001 259.158 5.60011 262.758 6.80011C266.358 8.00011 269.658 9.60011 272.658 11.6001C275.658 13.4001 278.158 15.5001 280.158 17.9001C283.158 21.3001 286.458 26.4001 290.058 33.2001C293.658 40.0001 297.458 47.6001 301.458 56.0001C301.858 54.2001 302.458 51.7001 303.258 48.5001C304.258 45.3001 305.458 41.9001 306.858 38.3001C308.458 34.5001 310.258 30.8001 312.258 27.2001C314.258 23.6001 316.558 20.4001 319.158 17.6001C319.758 16.8001 320.958 15.7001 322.758 14.3001C324.558 12.9001 326.758 11.6001 329.358 10.4001C332.158 9.00011 335.358 7.90011 338.958 7.10011C342.758 6.30011 346.858 6.20011 351.258 6.80011C355.658 7.40011 359.458 8.6001 362.658 10.4001C365.858 12.2001 368.458 14.3001 370.458 16.7001C372.658 18.9001 374.358 21.3001 375.558 23.9001C376.758 26.5001 377.558 28.9001 377.958 31.1001C378.958 35.9001 379.558 40.7001 379.758 45.5001C380.158 50.3001 380.058 55.8001 379.458 62.0001C379.058 68.0001 378.258 75.2001 377.058 83.6001C376.058 92.0001 374.558 102.2 372.558 114.2C370.758 125.4 368.658 136.5 366.258 147.5C363.858 158.3 361.058 168.3 357.858 177.5C354.658 186.7 350.858 194.8 346.458 201.8C342.258 208.6 337.258 213.5 331.458 216.5C327.258 218.7 323.158 220 319.158 220.4C315.358 221 311.758 221 308.358 220.4C305.158 219.8 302.258 218.8 299.658 217.4C297.058 216 294.858 214.5 293.058 212.9C290.258 210.5 287.658 208.1 285.258 205.7C283.058 203.1 280.858 200.3 278.658 197.3C276.658 194.3 274.558 190.9 272.358 187.1C270.376 183.497 268.151 179.245 265.682 174.343C265.499 174.139 265.324 173.891 265.158 173.6C265.053 173.339 264.942 173.084 264.824 172.836Z" fill="black"/>
<path d="M299.658 62.6001C300.258 64.0001 301.258 64.6001 302.658 64.4001C303.821 64.2547 304.614 63.7395 305.037 62.8545C304.557 61.7697 304.064 60.6849 303.558 59.6001C302.958 58.4001 301.858 58.0001 300.258 58.4001C299.046 59.0062 298.522 59.7845 298.688 60.7349C299.008 61.3511 299.332 61.9729 299.658 62.6001Z" fill="black"/>
<path d="M166.5 144.2L166.046 143.99L166.046 143.99L166.5 144.2ZM178.5 103.1L178.004 103.035L178.003 103.042L178.5 103.1ZM177.3 64.4001L177.789 64.2942L177.3 64.4001ZM163.5 32.6001L163.09 32.8857L163.094 32.8916L163.5 32.6001ZM138.9 11.9001L138.676 12.3473L138.684 12.351L138.691 12.3543L138.9 11.9001ZM126.3 7.7001L126.189 8.18767L126.2 8.19009L126.211 8.19204L126.3 7.7001ZM86.7001 11.0001L86.8709 11.47L86.8709 11.47L86.7001 11.0001ZM61.2001 24.8001L61.4953 25.2036L61.4953 25.2036L61.2001 24.8001ZM38.4001 46.7001L38.0123 46.3845L38.0123 46.3845L38.4001 46.7001ZM20.4001 75.8001L20.8536 76.0105L20.8538 76.0102L20.4001 75.8001ZM8.10005 117.2L7.60421 117.135L7.60348 117.142L8.10005 117.2ZM9.60005 155.6L10.0887 155.494L10.0887 155.494L9.60005 155.6ZM23.1001 187.4L22.6896 187.686L22.6938 187.692L23.1001 187.4ZM47.7001 208.1L47.4876 208.553L47.4898 208.554L47.7001 208.1ZM100.5 209L100.329 208.53L100.329 208.53L100.5 209ZM125.7 195.2L125.405 194.797L125.4 194.8L125.7 195.2ZM148.5 173.3L148.112 172.984L148.112 172.984L148.5 173.3ZM120.9 72.8001L120.575 73.1797L120.584 73.1875L120.593 73.1948L120.9 72.8001ZM123.3 79.7001L123.799 79.7334L123.799 79.7313L123.3 79.7001ZM120.6 90.2001L121.061 90.3942L121.064 90.3858L120.6 90.2001ZM114 102.5L114.416 102.778L114.422 102.769L114 102.5ZM104.4 114.8L104.028 114.466L104.024 114.471L104.4 114.8ZM95.4001 124.4L95.0465 124.047L95.0465 124.047L95.4001 124.4ZM86.4001 132.2L86.1044 131.797L86.1044 131.797L86.4001 132.2ZM77.7001 137.6L77.4765 137.153L77.4697 137.156L77.463 137.16L77.7001 137.6ZM66.0001 138.2L65.6877 138.591L65.6984 138.599L65.7094 138.607L66.0001 138.2ZM63.3001 131.3L63.799 131.333L63.7991 131.331L63.3001 131.3ZM66.0001 120.8L66.461 120.994L66.4643 120.986L66.0001 120.8ZM72.6001 108.5L73.0162 108.778L73.0219 108.769L72.6001 108.5ZM81.9001 95.9001L81.5196 95.5756L81.5191 95.5763L81.9001 95.9001ZM99.9001 78.5001L100.206 78.8956L100.214 78.8893L99.9001 78.5001ZM373.158 32.0001L372.661 32.0553L372.664 32.081L372.669 32.1063L373.158 32.0001ZM371.358 26.0001L371.813 25.7932L371.813 25.7932L371.358 26.0001ZM360.258 14.6001L359.996 15.0259L360.015 15.0375L360.034 15.0473L360.258 14.6001ZM350.658 11.6001L350.58 12.094L350.593 12.096L350.606 12.0974L350.658 11.6001ZM340.158 11.9001L340.25 12.3915L340.265 12.3888L340.279 12.3852L340.158 11.9001ZM331.758 14.6001L331.95 15.0616L331.966 15.055L331.981 15.0473L331.758 14.6001ZM325.758 18.2001L326.083 18.5798L326.087 18.5764L325.758 18.2001ZM322.758 20.9001L322.404 20.5466L322.398 20.5531L322.391 20.5599L322.758 20.9001ZM315.558 30.8001L315.125 30.5496L315.121 30.5573L315.558 30.8001ZM310.458 41.9001L309.989 41.7273L309.985 41.7383L309.981 41.7495L310.458 41.9001ZM307.458 52.4001L307.941 52.5289L307.943 52.5214L307.458 52.4001ZM305.958 59.3001L306.443 59.4214L306.45 59.3921L306.454 59.3621L305.958 59.3001ZM305.358 61.7001L304.873 61.5788L304.865 61.6081L304.862 61.6381L305.358 61.7001ZM302.658 64.4001L302.596 63.9039L302.587 63.9051L302.658 64.4001ZM299.658 62.6001L300.117 62.4031L300.11 62.386L300.101 62.3694L299.658 62.6001ZM286.158 36.8001L285.711 37.0238L285.716 37.0335L286.158 36.8001ZM276.558 21.2001L276.171 21.5167L276.176 21.5231L276.182 21.5294L276.558 21.2001ZM269.958 15.5001L269.673 15.9112L269.684 15.9189L269.696 15.9259L269.958 15.5001ZM239.958 11.9001L240.121 12.3728L240.123 12.372L239.958 11.9001ZM225.858 20.3001L225.504 19.9465L225.504 19.9465L225.858 20.3001ZM217.158 32.9001L216.703 32.6918L216.703 32.6918L217.158 32.9001ZM211.758 48.8001L211.272 48.6828L211.269 48.6953L211.758 48.8001ZM208.158 66.5001L208.649 66.5959L208.649 66.5951L208.158 66.5001ZM203.358 93.2001L203.851 93.284L203.851 93.2823L203.358 93.2001ZM198.858 122.3L198.363 122.231L198.361 122.241L198.858 122.3ZM195.258 152.3L194.761 152.241L194.76 152.25L195.258 152.3ZM192.858 181.1L192.359 181.068L192.359 181.074L192.858 181.1ZM197.658 202.7L197.229 202.957L197.235 202.968L197.242 202.977L197.658 202.7ZM204.558 210.5L204.235 210.882L204.242 210.888L204.249 210.893L204.558 210.5ZM214.158 215L214.049 215.488L214.052 215.489L214.158 215ZM227.058 215L227.179 215.485L227.187 215.483L227.195 215.481L227.058 215ZM238.158 209.9L237.886 209.48L237.875 209.488L238.158 209.9ZM246.558 202.7L246.178 202.375L246.176 202.377L246.558 202.7ZM251.658 195.2L251.204 194.991L251.203 194.993L251.658 195.2ZM257.358 181.1L256.884 180.942L257.358 181.1ZM261.258 167.3L260.773 167.179L260.772 167.183L261.258 167.3ZM263.958 164.9V165.4H263.993L264.029 165.395L263.958 164.9ZM266.958 166.7L266.498 166.897L267.458 166.7H266.958ZM266.958 166.4L267.408 166.182L266.458 166.4H266.958ZM275.058 182.3L274.619 182.54L274.624 182.548L275.058 182.3ZM281.958 193.4L281.546 193.683L281.546 193.683L281.958 193.4ZM288.558 201.8L288.189 202.138L288.197 202.146L288.204 202.154L288.558 201.8ZM296.058 209.3L295.704 209.654L295.729 209.679L295.758 209.7L296.058 209.3ZM309.258 215.6L309.153 216.089L309.16 216.09L309.258 215.6ZM318.558 215.6L318.499 215.104L318.482 215.106L318.466 215.109L318.558 215.6ZM329.358 212L329.134 211.553L329.125 211.558L329.358 212ZM342.858 198.8L342.434 198.535L342.432 198.539L342.858 198.8ZM353.358 176L352.885 175.839L352.885 175.839L353.358 176ZM361.458 146.9L361.946 147.011L361.946 147.009L361.458 146.9ZM367.758 113.3L367.265 113.218L367.264 113.223L367.758 113.3ZM372.258 83.0001L371.763 82.9277L371.762 82.9396L372.258 83.0001ZM374.658 61.7001L375.157 61.7334L375.157 61.7334L374.658 61.7001ZM264.858 172.7L265.305 172.477L264.701 171.268L264.373 172.579L264.858 172.7ZM260.358 163.4L260.313 163.898L261.125 163.972L260.822 163.214L260.358 163.4ZM259.158 161L258.673 161.121L258.694 161.205L258.742 161.277L259.158 161ZM258.258 158.6L257.811 158.824L257.811 158.824L258.258 158.6ZM253.758 149.6L253.294 149.786L253.301 149.805L253.311 149.824L253.758 149.6ZM249.558 140.6L249.11 140.824L249.117 140.835L249.558 140.6ZM250.758 137.6L250.561 137.141L250.535 137.152L250.51 137.166L250.758 137.6ZM253.758 138.5L253.311 138.724L253.317 138.735L253.758 138.5ZM258.258 147.5L257.805 147.712L257.811 147.724L258.258 147.5ZM262.458 156.5L262 156.701L262.004 156.71L262.458 156.5ZM266.058 164.3L265.604 164.51L265.607 164.517L265.611 164.524L266.058 164.3ZM269.358 171.8L268.891 171.98L268.9 172.002L268.911 172.024L269.358 171.8ZM268.158 174.8L268.037 174.315L267.983 174.328L267.934 174.353L268.158 174.8ZM263.658 170.9L263.194 171.086L263.218 171.147L263.258 171.2L263.658 170.9ZM262.458 167.9L262.922 167.714L262.64 167.01L262.104 167.547L262.458 167.9ZM261.558 168.2L261.52 168.699L261.539 168.7H261.558V168.2ZM245.358 166.4L245.499 165.92L245.492 165.918L245.358 166.4ZM235.458 161.6L235.754 161.197L235.731 161.18L235.706 161.166L235.458 161.6ZM234.858 158.3L235.265 158.591L235.269 158.584L235.274 158.577L234.858 158.3ZM238.158 157.7L238.463 157.304L238.436 157.283L238.406 157.266L238.158 157.7ZM246.558 161.6L246.687 161.117L246.671 161.113L246.656 161.11L246.558 161.6ZM254.058 163.1L254.008 163.598L254.033 163.6H254.058V163.1ZM303.558 59.6001L304.011 59.3886L304.005 59.3765L303.558 59.6001ZM307.458 68.6001L306.994 68.7858L306.999 68.7988L307.005 68.8115L307.458 68.6001ZM311.958 77.6001L312.412 77.3906L312.406 77.3775L312.399 77.3648L311.958 77.6001ZM315.258 85.4001L314.791 85.5796L314.797 85.5948L314.804 85.6096L315.258 85.4001ZM318.558 92.9001L318.096 93.0924L318.108 93.1212L318.124 93.1482L318.558 92.9001ZM317.358 96.2001L317.134 95.7529L317.134 95.7529L317.358 96.2001ZM314.358 95.0001L314.843 94.8788L314.832 94.8333L314.812 94.7906L314.358 95.0001ZM310.758 87.5001L310.291 87.6796L310.3 87.7021L310.311 87.7237L310.758 87.5001ZM307.458 79.7001L307 79.9006L307.004 79.9096L307.458 79.7001ZM303.258 70.4001L302.794 70.5858L302.799 70.5988L302.805 70.6116L303.258 70.4001ZM299.058 61.7001L298.624 61.9482L298.624 61.9482L299.058 61.7001ZM300.258 58.4001L300.137 57.915L300.083 57.9284L300.034 57.9529L300.258 58.4001ZM264.824 172.836L264.372 173.052L264.97 174.305L265.309 172.958L264.824 172.836ZM265.682 174.343L265.236 174.568L265.266 174.628L265.31 174.677L265.682 174.343ZM166.954 144.41C173.373 130.568 177.39 116.817 178.997 103.159L178.003 103.042C176.41 116.584 172.427 130.233 166.046 143.99L166.954 144.41ZM178.996 103.165C180.802 89.3154 180.402 76.3572 177.789 64.2942L176.811 64.506C179.398 76.443 179.798 89.2848 178.004 103.035L178.996 103.165ZM177.789 64.2942C175.175 52.2331 170.549 41.5688 163.906 32.3086L163.094 32.8916C169.651 42.0314 174.225 52.5671 176.811 64.506L177.789 64.2942ZM163.911 32.3146C157.461 23.0428 149.192 16.0838 139.109 11.4459L138.691 12.3543C148.609 16.9164 156.74 23.7574 163.09 32.8856L163.911 32.3146ZM139.124 11.4529C135.081 9.4317 130.836 8.01664 126.39 7.20817L126.211 8.19204C130.564 8.98356 134.719 10.3685 138.676 12.3473L139.124 11.4529ZM126.411 7.21254C121.974 6.20411 117.437 5.7001 112.8 5.7001V6.7001C117.364 6.7001 121.826 7.19609 126.189 8.18767L126.411 7.21254ZM112.8 5.7001C104.137 5.7001 95.3791 7.31206 86.5292 10.5302L86.8709 11.47C95.621 8.28815 104.263 6.7001 112.8 6.7001V5.7001ZM86.5292 10.5302C77.6812 13.7477 69.1397 18.3711 60.9048 24.3966L61.4953 25.2036C69.6604 19.2292 78.1189 14.6526 86.8709 11.47L86.5292 10.5302ZM60.9048 24.3966C52.6674 30.424 45.0368 37.7543 38.0123 46.3845L38.7878 47.0157C45.7633 38.4459 53.3328 31.1762 61.4953 25.2036L60.9048 24.3966ZM38.0123 46.3845C30.9841 55.019 24.9625 64.755 19.9463 75.59L20.8538 76.0102C25.8376 65.2452 31.816 55.5812 38.7878 47.0157L38.0123 46.3845ZM19.9465 75.5897C13.527 89.4316 9.41141 103.281 7.60425 117.135L8.59585 117.265C10.3887 103.52 14.4731 89.7686 20.8536 76.0105L19.9465 75.5897ZM7.60348 117.142C5.99777 130.79 6.49844 143.646 9.11139 155.706L10.0887 155.494C7.50167 143.554 7.00234 130.81 8.59663 117.259L7.60348 117.142ZM9.11139 155.706C11.724 167.764 16.2485 178.427 22.6896 187.686L23.5105 187.115C17.1516 177.974 12.6761 167.436 10.0887 155.494L9.11139 155.706ZM22.6938 187.692C29.3412 196.958 37.6067 203.915 47.4876 208.553L47.9125 207.647C38.1934 203.085 30.0589 196.243 23.5063 187.109L22.6938 187.692ZM47.4898 208.554C55.7598 212.386 64.7321 214.3 74.4001 214.3V213.3C64.8681 213.3 56.0403 211.414 47.9103 207.646L47.4898 208.554ZM74.4001 214.3C83.0633 214.3 91.821 212.688 100.671 209.47L100.329 208.53C91.5791 211.712 82.9368 213.3 74.4001 213.3V214.3ZM100.671 209.47C109.52 206.252 117.963 201.628 126 195.6L125.4 194.8C117.437 200.773 109.08 205.348 100.329 208.53L100.671 209.47ZM125.995 195.604C134.233 189.576 141.863 182.246 148.888 173.616L148.112 172.984C141.137 181.554 133.567 188.824 125.405 194.797L125.995 195.604ZM148.888 173.616C155.916 164.981 161.938 155.245 166.954 144.41L166.046 143.99C161.063 154.755 155.084 164.419 148.112 172.984L148.888 173.616ZM120.593 73.1948C122.214 74.4557 122.995 76.5614 122.801 79.6689L123.799 79.7313C124.005 76.4388 123.186 73.9446 121.207 72.4054L120.593 73.1948ZM122.801 79.6668C122.606 82.5973 121.724 86.0439 120.136 90.0144L121.064 90.3858C122.676 86.3563 123.594 82.803 123.799 79.7334L122.801 79.6668ZM120.139 90.0061C118.553 93.7745 116.367 97.8494 113.578 102.232L114.422 102.769C117.233 98.3508 119.448 94.2257 121.061 90.3941L120.139 90.0061ZM113.584 102.223C110.798 106.401 107.613 110.482 104.028 114.466L104.772 115.135C108.387 111.118 111.602 106.999 114.416 102.777L113.584 102.223ZM104.024 114.471C101.232 117.662 98.2392 120.854 95.0465 124.047L95.7536 124.754C98.961 121.546 101.969 118.338 104.776 115.129L104.024 114.471ZM95.0465 124.047C92.0621 127.031 89.0812 129.614 86.1044 131.797L86.6957 132.603C89.7189 130.386 92.7381 127.769 95.7536 124.754L95.0465 124.047ZM86.1044 131.797C83.123 133.983 80.247 135.768 77.4765 137.153L77.9237 138.047C80.7531 136.633 83.6771 134.817 86.6957 132.603L86.1044 131.797ZM77.463 137.16C74.9119 138.534 72.5938 139.2 70.5001 139.2V140.2C72.8063 140.2 75.2882 139.467 77.9371 138.04L77.463 137.16ZM70.5001 139.2C69.0123 139.2 67.6126 138.737 66.2907 137.793L65.7094 138.607C67.1875 139.663 68.7879 140.2 70.5001 140.2V139.2ZM66.3124 137.81C64.4637 136.331 63.6077 134.203 63.7989 131.333L62.8012 131.267C62.5924 134.398 63.5364 136.87 65.6877 138.591L66.3124 137.81ZM63.7991 131.331C63.9947 128.201 64.8767 124.756 66.4609 120.994L65.5392 120.606C63.9234 124.444 63.0054 127.999 62.801 131.269L63.7991 131.331ZM66.4643 120.986C68.0495 117.023 70.2321 112.953 73.0161 108.777L72.184 108.223C69.368 112.447 67.1506 116.577 65.5358 120.614L66.4643 120.986ZM73.0219 108.769C75.8095 104.388 78.8958 100.207 82.281 96.2239L81.5191 95.5763C78.1043 99.5937 74.9906 103.812 72.1782 108.232L73.0219 108.769ZM82.2805 96.2246C88.0612 89.4471 94.0367 83.6718 100.206 78.8955L99.594 78.1048C93.3634 82.9284 87.3389 88.7531 81.5196 95.5756L82.2805 96.2246ZM100.214 78.8893C106.389 73.9096 111.576 71.5001 115.8 71.5001V70.5001C111.225 70.5001 105.811 73.0906 99.5862 78.1109L100.214 78.8893ZM115.8 71.5001C117.692 71.5001 119.273 72.0642 120.575 73.1797L121.225 72.4205C119.727 71.136 117.909 70.5001 115.8 70.5001V71.5001ZM373.655 31.9449C373.447 30.0782 372.828 28.0262 371.813 25.7932L370.903 26.207C371.888 28.374 372.468 30.322 372.661 32.0553L373.655 31.9449ZM371.813 25.7932C370.79 23.5417 369.36 21.3994 367.53 19.3656L366.786 20.0346C368.556 22.0008 369.926 24.0585 370.903 26.207L371.813 25.7932ZM367.53 19.3656C365.681 17.3122 363.328 15.5764 360.481 14.1529L360.034 15.0473C362.787 16.4238 365.034 18.088 366.786 20.0346L367.53 19.3656ZM360.52 14.1743C357.842 12.5265 354.566 11.5088 350.71 11.1029L350.606 12.0974C354.349 12.4914 357.473 13.4737 359.996 15.0259L360.52 14.1743ZM350.736 11.1062C346.88 10.4975 343.312 10.5963 340.037 11.415L340.279 12.3852C343.404 11.6039 346.835 11.5027 350.58 12.094L350.736 11.1062ZM340.066 11.4087C336.829 12.0155 333.984 12.9282 331.534 14.1529L331.981 15.0473C334.332 13.872 337.086 12.9847 340.25 12.3915L340.066 11.4087ZM331.566 14.1386C329.126 15.1549 327.077 16.3812 325.429 17.8238L326.087 18.5764C327.638 17.219 329.589 16.0453 331.95 15.0616L331.566 14.1386ZM325.432 17.8205C324.031 19.0215 323.019 19.932 322.404 20.5466L323.111 21.2537C323.697 20.6682 324.684 19.7787 326.083 18.5797L325.432 17.8205ZM322.391 20.5599C319.763 23.3909 317.341 26.722 315.125 30.5496L315.991 31.0506C318.175 27.2782 320.553 24.0093 323.124 21.2403L322.391 20.5599ZM315.121 30.5573C313.109 34.1794 311.398 37.9027 309.989 41.7273L310.927 42.073C312.318 38.2975 314.007 34.6208 315.995 31.0429L315.121 30.5573ZM309.981 41.7495C308.779 45.5573 307.776 49.0672 306.973 52.2788L307.943 52.5214C308.74 49.333 309.737 45.8429 310.935 42.0507L309.981 41.7495ZM306.975 52.2713C306.173 55.2771 305.666 57.6035 305.462 59.2381L306.454 59.3621C306.65 57.7967 307.143 55.5231 307.941 52.5289L306.975 52.2713ZM305.473 59.1788L304.873 61.5788L305.843 61.8214L306.443 59.4214L305.473 59.1788ZM302.587 63.9051C301.976 63.9925 301.497 63.9005 301.115 63.6714C300.729 63.4399 300.389 63.036 300.117 62.4031L299.198 62.7971C299.527 63.5642 299.986 64.1603 300.601 64.5289C301.219 64.8997 301.94 65.0077 302.729 64.8951L302.587 63.9051ZM286.605 36.5765C283 29.3659 279.777 24.1198 276.934 20.8709L276.182 21.5294C278.939 24.6804 282.116 29.8343 285.711 37.0237L286.605 36.5765ZM276.945 20.8835C275.107 18.6373 272.864 16.7013 270.22 15.0743L269.696 15.9259C272.252 17.4989 274.409 19.3629 276.171 21.5167L276.945 20.8835ZM270.242 15.089C267.598 13.2586 264.652 11.837 261.407 10.8229L261.109 11.7773C264.263 12.7632 267.117 14.1417 269.673 15.9112L270.242 15.089ZM261.407 10.8229C258.155 9.80671 254.705 9.30011 251.058 9.30011V10.3001C254.611 10.3001 257.96 10.7935 261.109 11.7773L261.407 10.8229ZM251.058 9.30011C247.59 9.30011 243.833 10.014 239.793 11.4282L240.123 12.372C244.083 10.9862 247.726 10.3001 251.058 10.3001V9.30011ZM239.795 11.4274C233.938 13.4471 229.168 16.283 225.504 19.9465L226.211 20.6537C229.748 17.1172 234.378 14.3531 240.121 12.3728L239.795 11.4274ZM225.504 19.9465C221.861 23.5901 218.927 27.8398 216.703 32.6918L217.612 33.1084C219.789 28.3604 222.655 24.2101 226.211 20.6537L225.504 19.9465ZM216.703 32.6918C214.488 37.5245 212.678 42.8555 211.272 48.6828L212.244 48.9174C213.637 43.1447 215.427 37.8757 217.612 33.1084L216.703 32.6918ZM211.269 48.6953C210.068 54.2989 208.868 60.2022 207.667 66.4051L208.649 66.5951C209.848 60.3981 211.048 54.5013 212.247 48.9049L211.269 48.6953ZM207.667 66.4044C206.066 74.6095 204.465 83.5141 202.865 93.1179L203.851 93.2823C205.45 83.6861 207.05 74.7907 208.649 66.5959L207.667 66.4044ZM202.865 93.1162C201.264 102.521 199.763 112.226 198.363 122.231L199.353 122.369C200.752 112.374 202.252 102.679 203.851 93.284L202.865 93.1162ZM198.361 122.241C197.161 132.241 195.961 142.241 194.761 152.241L195.754 152.36C196.954 142.36 198.154 132.36 199.354 122.36L198.361 122.241ZM194.76 152.25C193.76 162.256 192.959 171.861 192.359 181.068L193.357 181.133C193.956 171.939 194.756 162.345 195.755 152.35L194.76 152.25ZM192.359 181.074C192.156 184.918 192.46 188.762 193.269 192.603L194.247 192.397C193.456 188.639 193.16 184.882 193.357 181.126L192.359 181.074ZM193.269 192.603C194.079 196.452 195.398 199.905 197.229 202.957L198.087 202.443C196.318 199.496 195.037 196.149 194.247 192.397L193.269 192.603ZM197.242 202.977C199.266 206.014 201.597 208.65 204.235 210.882L204.881 210.118C202.319 207.95 200.049 205.386 198.074 202.423L197.242 202.977ZM204.249 210.893C207.11 213.141 210.379 214.673 214.049 215.488L214.266 214.512C210.737 213.728 207.606 212.259 204.867 210.107L204.249 210.893ZM214.052 215.489C218.716 216.503 223.095 216.506 227.179 215.485L226.937 214.515C223.021 215.494 218.8 215.498 214.264 214.512L214.052 215.489ZM227.195 215.481C231.441 214.268 235.191 212.546 238.441 210.312L237.875 209.488C234.724 211.654 231.075 213.332 226.921 214.519L227.195 215.481ZM238.429 210.32C241.863 208.098 244.702 205.667 246.94 203.023L246.176 202.377C244.013 204.933 241.253 207.302 237.886 209.48L238.429 210.32ZM246.937 203.026C249.354 200.206 251.086 197.666 252.113 195.407L251.203 194.993C250.23 197.134 248.562 199.594 246.178 202.375L246.937 203.026ZM252.112 195.41C254.517 190.197 256.425 185.48 257.832 181.258L256.884 180.942C255.491 185.12 253.598 189.803 251.204 194.991L252.112 195.41ZM261.743 167.421C261.927 166.684 262.213 166.186 262.565 165.874C262.909 165.568 263.359 165.4 263.958 165.4V164.4C263.157 164.4 262.457 164.632 261.901 165.126C261.352 165.614 260.988 166.316 260.773 167.179L261.743 167.421ZM264.029 165.395C264.64 165.308 265.119 165.4 265.501 165.629C265.886 165.86 266.227 166.264 266.498 166.897L267.417 166.503C267.089 165.736 266.629 165.14 266.015 164.771C265.397 164.4 264.676 164.292 263.887 164.405L264.029 165.395ZM267.458 166.7V166.4H266.458V166.7H267.458ZM274.624 182.548C277.029 186.757 279.336 190.47 281.546 193.683L282.37 193.117C280.179 189.931 277.887 186.243 275.492 182.052L274.624 182.548ZM281.546 193.683C283.757 196.899 285.971 199.718 288.189 202.138L288.926 201.462C286.745 199.082 284.559 196.301 282.37 193.117L281.546 193.683ZM288.204 202.154C290.604 204.554 293.104 207.054 295.704 209.654L296.411 208.947C293.811 206.347 291.311 203.847 288.911 201.447L288.204 202.154ZM295.758 209.7C297.381 210.918 299.302 212.13 301.518 213.339L301.997 212.461C299.813 211.27 297.935 210.083 296.358 208.9L295.758 209.7ZM301.518 213.339C303.766 214.565 306.313 215.48 309.153 216.089L309.363 215.111C306.603 214.52 304.15 213.635 301.997 212.461L301.518 213.339ZM309.16 216.09C312.227 216.704 315.391 216.703 318.65 216.092L318.466 215.109C315.325 215.698 312.289 215.696 309.356 215.11L309.16 216.09ZM318.616 216.097C322.091 215.688 325.75 214.464 329.591 212.443L329.125 211.558C325.366 213.536 321.825 214.712 318.499 215.104L318.616 216.097ZM329.581 212.447C334.884 209.796 339.448 205.321 343.284 199.061L342.432 198.539C338.668 204.679 334.232 209.004 329.134 211.553L329.581 212.447ZM343.282 199.065C347.306 192.626 350.821 184.99 353.831 176.161L352.885 175.839C349.894 184.61 346.409 192.174 342.434 198.535L343.282 199.065ZM353.831 176.161C356.838 167.342 359.542 157.625 361.946 147.011L360.97 146.79C358.574 157.375 355.878 167.058 352.885 175.839L353.831 176.161ZM361.946 147.009C364.348 136.197 366.45 124.987 368.252 113.377L367.264 113.223C365.465 124.813 363.367 136.003 360.97 146.792L361.946 147.009ZM368.251 113.382C370.252 101.378 371.753 91.2704 372.754 83.0606L371.762 82.9396C370.763 91.1298 369.264 101.222 367.265 113.218L368.251 113.382ZM372.753 83.0725C373.954 74.864 374.756 67.7503 375.157 61.7334L374.159 61.6668C373.76 67.6499 372.962 74.7362 371.763 82.9277L372.753 83.0725ZM375.157 61.7334C375.558 55.7203 375.658 50.4013 375.457 45.7784L374.458 45.8218C374.657 50.399 374.558 55.68 374.159 61.6668L375.157 61.7334ZM375.457 45.7784C375.256 41.1493 374.652 36.5211 373.646 31.8939L372.669 32.1063C373.663 36.6791 374.26 41.2509 374.458 45.8218L375.457 45.7784ZM260.822 163.214C260.415 162.196 260 161.362 259.574 160.723L258.742 161.277C259.116 161.838 259.501 162.604 259.894 163.586L260.822 163.214ZM259.643 160.879C259.433 160.041 259.12 159.206 258.705 158.377L257.811 158.824C258.196 159.594 258.482 160.36 258.673 161.121L259.643 160.879ZM258.705 158.377C257.105 155.177 255.605 152.177 254.205 149.377L253.311 149.824C254.711 152.624 256.211 155.624 257.811 158.824L258.705 158.377ZM254.222 149.414C253.015 146.397 251.607 143.38 249.999 140.365L249.117 140.835C250.709 143.82 252.101 146.804 253.294 149.786L254.222 149.414ZM250.005 140.377C249.752 139.87 249.738 139.472 249.872 139.136C250.014 138.782 250.357 138.405 251.006 138.034L250.51 137.166C249.758 137.595 249.202 138.119 248.944 138.764C248.678 139.428 248.764 140.13 249.111 140.824L250.005 140.377ZM250.955 138.06C251.595 137.785 252.068 137.75 252.414 137.854C252.747 137.954 253.054 138.21 253.311 138.724L254.205 138.276C253.862 137.59 253.369 137.096 252.702 136.896C252.048 136.7 251.321 136.815 250.561 137.141L250.955 138.06ZM253.317 138.735C254.913 141.728 256.409 144.72 257.805 147.712L258.711 147.289C257.307 144.28 255.803 141.272 254.199 138.265L253.317 138.735ZM257.811 147.724C259.206 150.515 260.603 153.507 262 156.701L262.916 156.3C261.513 153.093 260.109 150.085 258.705 147.277L257.811 147.724ZM262.004 156.71C263.204 159.31 264.404 161.91 265.604 164.51L266.512 164.091C265.312 161.491 264.112 158.891 262.912 156.291L262.004 156.71ZM268.911 172.024C269.288 172.777 269.314 173.263 269.194 173.564C269.08 173.849 268.766 174.133 268.037 174.315L268.279 175.285C269.149 175.068 269.836 174.651 270.122 173.936C270.402 173.237 270.228 172.423 269.805 171.577L268.911 172.024ZM264.122 170.714C263.722 169.714 263.322 168.714 262.922 167.714L261.994 168.086C262.394 169.086 262.794 170.086 263.194 171.086L264.122 170.714ZM262.104 167.547C262.031 167.62 261.881 167.7 261.558 167.7V168.7C262.035 168.7 262.485 168.581 262.811 168.254L262.104 167.547ZM254.058 167.4C251.722 167.4 248.873 166.913 245.499 165.92L245.217 166.88C248.643 167.888 251.593 168.4 254.058 168.4V167.4ZM245.492 165.918C241.95 164.934 238.705 163.361 235.754 161.197L235.162 162.003C238.211 164.239 241.566 165.866 245.224 166.882L245.492 165.918ZM235.706 161.166C235.076 160.806 234.813 160.435 234.75 160.086C234.684 159.726 234.802 159.239 235.265 158.591L234.451 158.009C233.914 158.761 233.631 159.525 233.766 160.265C233.902 161.015 234.44 161.594 235.21 162.034L235.706 161.166ZM235.274 158.577C235.622 158.056 235.992 157.811 236.372 157.742C236.765 157.671 237.268 157.767 237.91 158.134L238.406 157.266C237.648 156.833 236.901 156.63 236.193 156.758C235.474 156.889 234.894 157.344 234.442 158.023L235.274 158.577ZM237.853 158.096C240.509 160.14 243.379 161.474 246.46 162.09L246.656 161.11C243.737 160.526 241.006 159.26 238.463 157.304L237.853 158.096ZM246.429 162.083C249.443 162.887 251.971 163.394 254.008 163.598L254.108 162.603C252.145 162.406 249.673 161.913 246.687 161.117L246.429 162.083ZM254.058 163.6C256.041 163.6 258.126 163.699 260.313 163.898L260.403 162.902C258.19 162.701 256.074 162.6 254.058 162.6V163.6ZM307.005 68.8115C308.409 71.8198 309.913 74.8278 311.517 77.8354L312.399 77.3648C310.803 74.3724 309.307 71.3804 307.911 68.3887L307.005 68.8115ZM311.504 77.8096C312.699 80.4 313.795 82.99 314.791 85.5796L315.725 85.2206C314.721 82.6102 313.616 80.0002 312.412 77.3906L311.504 77.8096ZM314.804 85.6096C316.002 88.2045 317.099 90.6987 318.096 93.0924L319.019 92.7078C318.017 90.3015 316.914 87.7957 315.712 85.1906L314.804 85.6096ZM318.124 93.1482C318.48 93.7711 318.521 94.239 318.388 94.6042C318.25 94.9839 317.879 95.3807 317.134 95.7529L317.581 96.6473C318.437 96.2195 319.066 95.6663 319.328 94.946C319.595 94.2112 319.436 93.4291 318.992 92.652L318.124 93.1482ZM317.134 95.7529C316.381 96.1297 315.895 96.1565 315.594 96.0359C315.309 95.9221 315.025 95.6087 314.843 94.8788L313.873 95.1214C314.09 95.9915 314.507 96.6782 315.222 96.9643C315.921 97.2437 316.735 97.0705 317.581 96.6473L317.134 95.7529ZM314.812 94.7906C313.61 92.1862 312.408 89.6815 311.205 87.2765L310.311 87.7237C311.508 90.1188 312.706 92.6141 313.904 95.2096L314.812 94.7906ZM311.225 87.3206C310.221 84.7102 309.116 82.1002 307.912 79.4906L307.004 79.9096C308.199 82.5 309.295 85.09 310.291 87.6796L311.225 87.3206ZM307.916 79.4997C306.514 76.2962 305.113 73.1925 303.711 70.1887L302.805 70.6116C304.203 73.6077 305.601 76.704 307 79.9005L307.916 79.4997ZM303.722 70.2144C302.514 67.193 301.103 64.2721 299.492 61.452L298.624 61.9482C300.212 64.7281 301.602 67.6072 302.794 70.5858L303.722 70.2144ZM300.379 58.8852C301.12 58.6998 301.687 58.7154 302.112 58.87C302.524 59.0199 302.859 59.3201 303.111 59.8237L304.005 59.3765C303.657 58.6801 303.142 58.1804 302.454 57.9302C301.779 57.6848 300.995 57.7004 300.137 57.915L300.379 58.8852ZM304.862 61.6381C304.813 62.0318 304.718 62.363 304.586 62.6387L305.488 63.0702C305.675 62.6808 305.794 62.2424 305.854 61.7621L304.862 61.6381ZM304.58 63.0568C305.425 64.9666 306.23 66.8763 306.994 68.7858L307.922 68.4144C307.154 66.4935 306.345 64.5727 305.495 62.6521L304.58 63.0568ZM299.492 61.452C299.32 61.1502 299.221 60.8833 299.18 60.6493L298.195 60.8206C298.26 61.1947 298.408 61.5713 298.624 61.9482L299.492 61.452ZM299.131 60.5041C294.339 51.2954 290.162 43.3162 286.6 36.5667L285.716 37.0335C289.277 43.7808 293.453 51.7581 298.244 60.9657L299.131 60.5041ZM198.361 122.241L194.761 152.241L195.754 152.36L199.354 122.36L198.361 122.241ZM257.832 181.258C259.156 177.286 260.39 172.96 261.535 168.281L260.563 168.043C259.425 172.7 258.198 176.999 256.884 180.942L257.832 181.258ZM261.085 167.663C258.656 167.488 256.314 167.4 254.058 167.4V168.4C256.288 168.4 258.606 168.487 261.013 168.661L261.085 167.663ZM258.705 158.377L254.205 149.377L253.311 149.824L257.811 158.824L258.705 158.377ZM262.004 156.71L265.604 164.51L266.512 164.091L262.912 156.291L262.004 156.71ZM265.611 164.524C266.373 166.048 267.095 167.614 267.776 169.221L268.697 168.83C268.008 167.205 267.277 165.62 266.505 164.076L265.611 164.524ZM267.788 169.245C270.283 174.334 272.561 178.766 274.619 182.54L275.497 182.061C273.447 178.303 271.177 173.885 268.686 168.805L267.788 169.245ZM288.204 202.154L295.704 209.654L296.411 208.947L288.911 201.447L288.204 202.154ZM267.776 169.221C268.161 170.127 268.532 171.047 268.891 171.98L269.825 171.621C269.462 170.677 269.086 169.747 268.697 168.83L267.776 169.221ZM300.101 62.3694C299.775 61.7422 299.452 61.1204 299.131 60.5041L298.244 60.9657C298.565 61.5819 298.888 62.2036 299.214 62.8308L300.101 62.3694ZM266.508 166.618C266.941 167.512 267.367 168.388 267.788 169.245L268.686 168.805C268.266 167.95 267.84 167.075 267.408 166.182L266.508 166.618ZM299.18 60.6492C299.119 60.297 299.184 59.9962 299.371 59.7174C299.568 59.4248 299.92 59.1279 300.481 58.8473L300.034 57.9529C299.383 58.2784 298.868 58.6737 298.541 59.1593C298.205 59.6588 298.091 60.2224 298.195 60.8206L299.18 60.6492ZM303.105 59.8116C303.61 60.8933 304.101 61.9751 304.58 63.0568L305.495 62.6521C305.013 61.5643 304.519 60.4764 304.011 59.3887L303.105 59.8116ZM261.535 168.281C261.605 167.994 261.675 167.706 261.744 167.417L260.772 167.183C260.703 167.471 260.633 167.758 260.563 168.043L261.535 168.281ZM261.596 167.702C261.425 167.688 261.255 167.676 261.085 167.663L261.013 168.661C261.181 168.673 261.35 168.686 261.52 168.699L261.596 167.702ZM304.586 62.6387C304.252 63.3385 303.628 63.775 302.596 63.904L302.72 64.8962C304.014 64.7345 304.976 64.1406 305.488 63.0702L304.586 62.6387ZM267.934 174.353C267.53 174.555 267.197 174.602 266.917 174.551C266.637 174.499 266.349 174.338 266.055 174.009L265.31 174.677C265.715 175.128 266.189 175.433 266.735 175.534C267.28 175.635 267.835 175.52 268.381 175.247L267.934 174.353ZM266.129 174.118C265.857 173.579 265.583 173.032 265.305 172.477L264.411 172.924C264.689 173.48 264.964 174.028 265.236 174.568L266.129 174.118ZM265.275 172.621C264.927 171.893 264.522 171.219 264.058 170.6L263.258 171.2C263.68 171.763 264.052 172.38 264.372 173.052L265.275 172.621ZM264.373 172.579C264.362 172.624 264.35 172.669 264.339 172.715L265.309 172.958C265.32 172.913 265.332 172.867 265.343 172.821L264.373 172.579ZM171.3 146.3L172.204 146.727L172.205 146.727L171.3 146.3ZM152.4 176.3L151.628 175.665L151.619 175.675L152.4 176.3ZM128.7 199.4L128.103 198.598L128.094 198.605L128.7 199.4ZM102 214.1L101.66 213.16L101.653 213.162L102 214.1ZM45.6001 212.9L45.1662 213.801L45.1772 213.806L45.6001 212.9ZM18.9001 190.4L18.0863 190.981L18.0863 190.981L18.9001 190.4ZM4.20005 156.8L3.22069 157.002L3.22222 157.01L3.22387 157.017L4.20005 156.8ZM3.00005 116.3L2.00778 116.176L2.00778 116.176L3.00005 116.3ZM15.6001 73.7001L16.5046 74.1265L16.5071 74.1212L15.6001 73.7001ZM34.2001 43.7001L34.9741 44.3334L34.9809 44.3248L34.2001 43.7001ZM57.6001 20.9001L58.1939 21.7047L58.1971 21.7023L57.6001 20.9001ZM84.6001 6.2001L84.9402 7.14048L84.9402 7.14048L84.6001 6.2001ZM141.3 7.40011L141.72 6.49263L141.715 6.49042L141.3 7.40011ZM182.4 63.2001L181.421 63.4022L181.421 63.4022L182.4 63.2001ZM183.6 103.7L182.608 103.576L182.606 103.59L183.6 103.7ZM117.3 76.4001L116.593 77.1072L116.62 77.1344L116.649 77.1594L117.3 76.4001ZM107.7 79.1001L108.255 79.9322L108.273 79.9198L108.291 79.9065L107.7 79.1001ZM98.7001 86.0001L99.355 86.7558L99.355 86.7558L98.7001 86.0001ZM90.6001 93.8001L91.3072 94.5072L91.3213 94.4931L91.3349 94.4784L90.6001 93.8001ZM86.1001 98.9001L86.8809 99.5248L86.9229 99.4723L86.9576 99.4146L86.1001 98.9001ZM81.0001 105.5L80.2057 104.893L80.2001 104.9L81.0001 105.5ZM73.8001 116.3L72.9426 115.786L72.9385 115.792L72.9346 115.799L73.8001 116.3ZM68.7001 127.1L69.643 127.433L69.643 127.433L68.7001 127.1ZM80.1001 130.7L80.5931 131.57L80.6039 131.564L80.6146 131.558L80.1001 130.7ZM100.8 111.2L100.044 110.545L100.037 110.553L100.03 110.562L100.8 111.2ZM115.8 88.1001L114.86 87.7584L114.857 87.7667L114.854 87.775L115.8 88.1001ZM377.958 31.1001L376.974 31.279L376.976 31.2916L376.979 31.3041L377.958 31.1001ZM379.758 45.5001L378.759 45.5417L378.76 45.5625L378.761 45.5832L379.758 45.5001ZM379.458 62.0001L378.463 61.9038L378.461 61.9187L378.46 61.9336L379.458 62.0001ZM377.058 83.6001L376.068 83.4587L376.066 83.4703L376.065 83.4819L377.058 83.6001ZM372.558 114.2L371.571 114.036L371.571 114.041L372.558 114.2ZM366.258 147.5L367.234 147.717L367.235 147.713L366.258 147.5ZM357.858 177.5L358.802 177.829L358.802 177.829L357.858 177.5ZM346.458 201.8L345.611 201.268L345.607 201.275L346.458 201.8ZM331.458 216.5L330.998 215.612L330.994 215.614L331.458 216.5ZM319.158 220.4L319.058 219.405L319.03 219.408L319.002 219.412L319.158 220.4ZM308.358 220.4L308.174 221.383L308.184 221.385L308.358 220.4ZM293.058 212.9L293.722 212.153L293.715 212.147L293.709 212.141L293.058 212.9ZM285.258 205.7L284.494 206.346L284.521 206.378L284.551 206.407L285.258 205.7ZM278.658 197.3L277.826 197.855L277.838 197.873L277.851 197.891L278.658 197.3ZM272.358 187.1L271.482 187.582L271.487 187.592L271.492 187.601L272.358 187.1ZM260.658 185.9L259.729 185.529L259.721 185.549L259.714 185.57L260.658 185.9ZM256.158 197.3L257.066 197.719L257.069 197.713L257.072 197.706L256.158 197.3ZM250.458 206L251.214 206.655L251.224 206.643L251.234 206.631L250.458 206ZM240.858 214.1L241.392 214.946L241.392 214.946L240.858 214.1ZM227.958 219.5L227.715 218.53L227.705 218.533L227.958 219.5ZM213.258 219.5L213.026 220.473L213.033 220.475L213.258 219.5ZM193.758 205.4L192.892 205.901L192.9 205.915L192.909 205.928L193.758 205.4ZM188.058 180.8L189.056 180.868L189.056 180.865L188.058 180.8ZM190.458 152L189.465 151.883L189.464 151.892L189.463 151.901L190.458 152ZM194.058 121.7L193.068 121.561L193.066 121.571L193.065 121.581L194.058 121.7ZM198.558 92.3001L199.544 92.4645L199.544 92.4645L198.558 92.3001ZM203.358 65.6001L202.377 65.404L202.376 65.4086L203.358 65.6001ZM207.258 47.6001L206.284 47.3729L206.284 47.3729L207.258 47.6001ZM212.958 30.8001L212.05 30.381L212.05 30.3811L212.958 30.8001ZM222.558 17.0001L223.265 17.7072L223.274 17.6986L223.282 17.6898L222.558 17.0001ZM238.458 7.40011L238.774 8.34879L238.787 8.34452L238.8 8.3399L238.458 7.40011ZM262.758 6.80011L262.442 7.7488L262.442 7.7488L262.758 6.80011ZM272.658 11.6001L272.103 12.4322L272.123 12.4454L272.143 12.4576L272.658 11.6001ZM280.158 17.9001L279.39 18.5403L279.399 18.5511L279.408 18.5617L280.158 17.9001ZM290.058 33.2001L289.174 33.668L289.174 33.668L290.058 33.2001ZM301.458 56.0001L300.555 56.43L301.804 59.0527L302.434 56.217L301.458 56.0001ZM303.258 48.5001L302.303 48.2018L302.295 48.2295L302.288 48.2576L303.258 48.5001ZM306.858 38.3001L305.936 37.912L305.931 37.9248L305.926 37.9377L306.858 38.3001ZM319.158 17.6001L319.891 18.2806L319.926 18.2421L319.958 18.2001L319.158 17.6001ZM322.758 14.3001L323.372 15.0895L323.372 15.0895L322.758 14.3001ZM329.358 10.4001L329.777 11.3081L329.791 11.3015L329.805 11.2945L329.358 10.4001ZM338.958 7.10011L338.752 6.1215L338.741 6.12392L338.958 7.10011ZM351.258 6.80011L351.123 7.79094L351.123 7.79094L351.258 6.80011ZM370.458 16.7001L369.69 17.3403L369.719 17.3751L369.751 17.4072L370.458 16.7001ZM375.558 23.9001L374.65 24.3192L374.65 24.3192L375.558 23.9001ZM265.158 173.6L264.229 173.972L264.255 174.036L264.29 174.096L265.158 173.6ZM264.824 172.836L265.726 172.406L264.53 169.9L263.854 172.593L264.824 172.836ZM265.682 174.343L266.575 173.893L266.516 173.774L266.427 173.675L265.682 174.343ZM170.396 145.873C165.23 156.802 158.973 166.731 151.628 175.665L153.172 176.935C160.627 167.869 166.971 157.799 172.204 146.727L170.396 145.873ZM151.619 175.675C144.469 184.614 136.629 192.253 128.103 198.598L129.297 200.202C137.971 193.748 145.931 185.987 153.181 176.925L151.619 175.675ZM128.094 198.605C119.77 204.947 110.959 209.796 101.66 213.16L102.34 215.04C111.841 211.604 120.83 206.654 129.306 200.196L128.094 198.605ZM101.653 213.162C92.5595 216.523 83.3767 218.2 74.1001 218.2V220.2C83.6235 220.2 93.0406 218.477 102.347 215.038L101.653 213.162ZM74.1001 218.2C64.2451 218.2 54.8896 216.132 46.0229 211.994L45.1772 213.806C54.3105 218.069 63.955 220.2 74.1001 220.2V218.2ZM46.0339 211.999C35.3861 206.872 26.6165 199.483 19.7138 189.819L18.0863 190.981C25.1836 200.918 34.214 208.528 45.1662 213.801L46.0339 211.999ZM19.7138 189.819C12.7973 180.136 7.94922 169.062 5.17624 156.583L3.22387 157.017C6.05089 169.739 11.0028 181.064 18.0863 190.981L19.7138 189.819ZM5.17942 156.598C2.60419 144.118 2.2042 130.729 3.99233 116.424L2.00778 116.176C0.195908 130.671 0.595917 144.282 3.22069 157.002L5.17942 156.598ZM3.99233 116.424C5.77839 102.136 9.94661 88.0374 16.5046 74.1265L14.6955 73.2737C8.0535 87.3628 3.82172 101.665 2.00778 116.176L3.99233 116.424ZM16.5071 74.1212C21.6748 62.9908 27.8314 53.0632 34.974 44.3333L33.4261 43.0669C26.1687 51.937 19.9253 62.0095 14.693 73.279L16.5071 74.1212ZM34.9809 44.3248C42.1322 35.3857 49.8706 27.8481 58.1939 21.7047L57.0062 20.0955C48.5295 26.3521 40.6679 34.0145 33.4192 43.0754L34.9809 44.3248ZM58.1971 21.7023C66.7243 15.3565 75.6385 10.5049 84.9402 7.14048L84.2599 5.25973C74.7616 8.6953 65.6758 13.6437 57.003 20.0979L58.1971 21.7023ZM84.9402 7.14048C94.2406 3.77651 103.426 2.1001 112.5 2.1001V0.100098C103.174 0.100098 93.7595 1.82369 84.2599 5.25973L84.9402 7.14048ZM112.5 2.1001C122.355 2.1001 131.814 4.1686 140.885 8.30979L141.715 6.49042C132.387 2.2316 122.645 0.100098 112.5 0.100098V2.1001ZM140.88 8.30757C151.521 13.2339 160.286 20.5206 167.186 30.1813L168.814 29.0189C161.714 19.0796 152.679 11.5663 141.72 6.49264L140.88 8.30757ZM167.186 30.1813C174.1 39.8603 178.847 50.9293 181.421 63.4022L183.379 62.998C180.753 50.2709 175.9 38.9399 168.814 29.0189L167.186 30.1813ZM181.421 63.4022C183.996 75.8822 184.396 89.271 182.608 103.576L184.592 103.824C186.404 89.3292 186.004 75.7181 183.379 62.998L181.421 63.4022ZM182.606 103.59C181.019 117.873 176.952 131.967 170.396 145.874L172.205 146.727C178.848 132.634 182.981 118.327 184.594 103.811L182.606 103.59ZM118.007 75.693C117.319 75.0051 116.278 74.8001 115.2 74.8001V76.8001C116.122 76.8001 116.481 76.9951 116.593 77.1072L118.007 75.693ZM115.2 74.8001C112.871 74.8001 110.153 76.0614 107.109 78.2937L108.291 79.9065C111.247 77.7388 113.53 76.8001 115.2 76.8001V74.8001ZM107.145 78.2681C104.107 80.2936 101.074 82.6196 98.0451 85.2444L99.355 86.7558C102.326 84.1806 105.293 81.9066 108.255 79.9322L107.145 78.2681ZM98.0451 85.2444C95.0204 87.8658 92.2932 90.4915 89.8652 93.1218L91.3349 94.4784C93.7069 91.9087 96.3797 89.3344 99.355 86.7558L98.0451 85.2444ZM89.8929 93.093C87.5061 95.4799 85.916 97.2632 85.2426 98.3856L86.9576 99.4146C87.4841 98.537 88.894 96.9203 91.3072 94.5072L89.8929 93.093ZM85.3192 98.2754C84.511 99.2856 82.8041 101.495 80.2057 104.893L81.7944 106.108C84.3961 102.705 86.0891 100.515 86.8809 99.5248L85.3192 98.2754ZM80.2001 104.9C77.7764 108.132 75.3574 111.761 72.9426 115.786L74.6575 116.815C77.0427 112.839 79.4237 109.269 81.8001 106.1L80.2001 104.9ZM72.9346 115.799C70.7101 119.642 68.9815 123.298 67.7571 126.767L69.643 127.433C70.8186 124.102 72.4901 120.559 74.6655 116.801L72.9346 115.799ZM67.7571 126.767C67.1359 128.527 66.8182 130.089 66.876 131.419C66.9348 132.772 67.3892 133.936 68.3493 134.759L69.6508 133.241C69.2109 132.864 68.9153 132.279 68.8741 131.332C68.8319 130.361 69.0642 129.073 69.643 127.433L67.7571 126.767ZM68.3493 134.759C68.9324 135.259 69.6804 135.453 70.4617 135.469C71.2407 135.484 72.1315 135.325 73.11 135.034C75.068 134.452 77.5701 133.283 80.5931 131.57L79.607 129.83C76.6301 131.517 74.2822 132.599 72.5401 133.117C71.6686 133.376 70.9969 133.479 70.5009 133.469C70.0072 133.459 69.7677 133.341 69.6508 133.241L68.3493 134.759ZM80.6146 131.558C86.7577 127.872 93.7429 121.271 101.57 111.839L100.03 110.562C92.2572 119.929 85.4424 126.328 79.5856 129.843L80.6146 131.558ZM101.556 111.855C109.386 102.82 114.484 95.0053 116.746 88.4252L114.854 87.775C112.716 93.9949 107.814 101.58 100.044 110.545L101.556 111.855ZM116.74 88.4419C117.949 85.1175 118.703 82.4113 118.967 80.3523C119.099 79.3234 119.115 78.4068 118.979 77.6326C118.842 76.858 118.536 76.1422 117.951 75.6409L116.649 77.1594C116.764 77.258 116.921 77.4797 117.009 77.9801C117.097 78.4809 117.101 79.1768 116.983 80.0979C116.747 81.9389 116.051 84.4827 114.86 87.7584L116.74 88.4419ZM376.979 31.3041C377.968 36.0517 378.561 40.7974 378.759 45.5417L380.757 45.4585C380.555 40.6028 379.948 35.7485 378.937 30.8962L376.979 31.3041ZM378.761 45.5832C379.155 50.3091 379.058 55.7471 378.463 61.9038L380.453 62.0964C381.057 55.8531 381.161 50.2911 380.754 45.4171L378.761 45.5832ZM378.46 61.9336C378.062 67.9007 377.266 75.0743 376.068 83.4587L378.048 83.7415C379.25 75.3259 380.053 68.0995 380.456 62.0666L378.46 61.9336ZM376.065 83.4819C375.067 91.8614 373.57 102.045 371.571 114.036L373.544 114.365C375.546 102.355 377.048 92.1388 378.051 83.7183L376.065 83.4819ZM371.571 114.041C369.773 125.223 367.677 136.305 365.281 147.287L367.235 147.713C369.639 136.695 371.742 125.577 373.545 114.359L371.571 114.041ZM365.282 147.283C362.889 158.05 360.099 168.013 356.913 177.172L358.802 177.829C362.017 168.588 364.827 158.55 367.234 147.717L365.282 147.283ZM356.913 177.172C353.734 186.313 349.965 194.342 345.611 201.268L347.304 202.332C351.751 195.258 355.582 187.088 358.802 177.829L356.913 177.172ZM345.607 201.275C341.481 207.955 336.605 212.712 330.998 215.612L331.917 217.388C337.911 214.288 343.035 209.245 347.309 202.326L345.607 201.275ZM330.994 215.614C326.887 217.765 322.91 219.02 319.058 219.405L319.257 221.395C323.405 220.98 327.628 219.635 331.922 217.386L330.994 215.614ZM319.002 219.412C315.299 219.997 311.811 219.994 308.532 219.415L308.184 221.385C311.705 222.006 315.417 222.003 319.314 221.388L319.002 219.412ZM308.542 219.417C305.433 218.834 302.632 217.866 300.132 216.52L299.184 218.281C301.883 219.734 304.883 220.766 308.174 221.383L308.542 219.417ZM300.132 216.52C297.586 215.149 295.453 213.691 293.722 212.153L292.393 213.648C294.263 215.309 296.53 216.852 299.184 218.281L300.132 216.52ZM293.709 212.141C290.926 209.756 288.345 207.373 285.965 204.993L284.551 206.407C286.97 208.827 289.589 211.244 292.407 213.659L293.709 212.141ZM286.021 205.054C283.838 202.473 281.652 199.692 279.464 196.709L277.851 197.891C280.064 200.908 282.278 203.727 284.494 206.346L286.021 205.054ZM279.49 196.745C277.504 193.766 275.415 190.385 273.223 186.599L271.492 187.601C273.701 191.416 275.812 194.834 277.826 197.855L279.49 196.745ZM259.714 185.57C258.322 189.546 256.832 193.321 255.244 196.894L257.072 197.706C258.684 194.08 260.193 190.254 261.602 186.23L259.714 185.57ZM255.25 196.881C254.096 199.38 252.25 202.209 249.682 205.37L251.234 206.631C253.866 203.392 255.819 200.42 257.066 197.719L255.25 196.881ZM249.702 205.345C247.174 208.262 244.052 210.9 240.324 213.255L241.392 214.946C245.264 212.5 248.542 209.738 251.214 206.655L249.702 205.345ZM240.324 213.255C236.622 215.592 232.423 217.353 227.715 218.53L228.2 220.47C233.093 219.247 237.493 217.408 241.392 214.946L240.324 213.255ZM227.705 218.533C223.28 219.687 218.545 219.694 213.483 218.526L213.033 220.475C218.371 221.706 223.436 221.713 228.21 220.468L227.705 218.533ZM213.489 218.527C205.349 216.589 199.069 212.051 194.607 204.872L192.909 205.928C197.646 213.55 204.367 218.411 213.026 220.473L213.489 218.527ZM194.623 204.899C190.324 197.472 188.469 189.47 189.056 180.868L187.06 180.732C186.447 189.73 188.392 198.128 192.892 205.901L194.623 204.899ZM189.056 180.865C189.655 171.678 190.454 162.089 191.453 152.1L189.463 151.901C188.462 161.911 187.661 171.523 187.06 180.735L189.056 180.865ZM191.451 152.117C192.651 141.918 193.851 131.818 195.051 121.819L193.065 121.581C191.865 131.582 190.665 141.683 189.465 151.883L191.451 152.117ZM195.048 121.839C196.447 111.847 197.946 102.056 199.544 92.4645L197.571 92.1357C195.97 101.745 194.469 111.553 193.068 121.561L195.048 121.839ZM199.544 92.4645C201.143 82.8721 202.741 73.9813 204.339 65.7916L202.376 65.4086C200.774 73.6189 199.173 82.5281 197.571 92.1357L199.544 92.4645ZM204.338 65.7962C205.536 59.8067 206.834 53.8171 208.232 47.8273L206.284 47.3729C204.882 53.3831 203.579 59.3935 202.377 65.404L204.338 65.7962ZM208.232 47.8273C209.617 41.8884 211.496 36.3532 213.866 31.2192L212.05 30.3811C209.619 35.647 207.698 41.3118 206.284 47.3729L208.232 47.8273ZM213.866 31.2192C216.217 26.1249 219.349 21.6227 223.265 17.7072L221.851 16.293C217.766 20.3775 214.499 25.0753 212.05 30.381L213.866 31.2192ZM223.282 17.6898C227.149 13.6296 232.298 10.5073 238.774 8.34879L238.142 6.45142C231.417 8.69286 225.967 11.9706 221.834 16.3105L223.282 17.6898ZM238.8 8.3399C243.108 6.77307 247.192 6.0001 251.058 6.0001V4.0001C246.923 4.0001 242.607 4.82713 238.116 6.46031L238.8 8.3399ZM251.058 6.0001C255.162 6.0001 258.954 6.5862 262.442 7.7488L263.074 5.85143C259.362 4.61401 255.354 4.0001 251.058 4.0001V6.0001ZM262.442 7.7488C265.962 8.92216 269.181 10.484 272.103 12.4322L273.213 10.7681C270.135 8.71623 266.754 7.07806 263.074 5.85143L262.442 7.7488ZM272.143 12.4576C275.059 14.2068 277.469 16.2361 279.39 18.5403L280.926 17.2599C278.846 14.7641 276.257 12.5935 273.172 10.7426L272.143 12.4576ZM279.408 18.5617C282.332 21.8758 285.589 26.8966 289.174 33.668L290.942 32.7322C287.327 25.9036 283.984 20.7244 280.908 17.2385L279.408 18.5617ZM289.174 33.668C292.766 40.4532 296.56 48.0403 300.555 56.43L302.361 55.5702C298.356 47.1599 294.549 39.547 290.942 32.7322L289.174 33.668ZM302.434 56.217C302.831 54.4298 303.429 51.9396 304.228 48.7427L302.288 48.2576C301.487 51.4606 300.885 53.9705 300.482 55.7832L302.434 56.217ZM304.212 48.7984C305.205 45.623 306.397 42.2445 307.79 38.6625L305.926 37.9377C304.519 41.5557 303.311 44.9772 302.303 48.2018L304.212 48.7984ZM307.78 38.6882C309.365 34.9215 311.15 31.2541 313.132 27.6857L311.384 26.7145C309.366 30.3461 307.55 34.0787 305.936 37.912L307.78 38.6882ZM313.132 27.6857C315.096 24.1507 317.35 21.0172 319.891 18.2806L318.425 16.9196C315.766 19.783 313.42 23.0495 311.384 26.7145L313.132 27.6857ZM319.958 18.2001C320.471 17.5164 321.576 16.4864 323.372 15.0895L322.144 13.5108C320.34 14.9138 319.045 16.0838 318.358 17.0001L319.958 18.2001ZM323.372 15.0895C325.099 13.7464 327.229 12.4838 329.777 11.3081L328.939 9.49214C326.286 10.7164 324.017 12.0538 322.144 13.5108L323.372 15.0895ZM329.805 11.2945C332.52 9.9369 335.641 8.86161 339.175 8.0763L338.741 6.12392C335.075 6.93861 331.795 8.06332 328.911 9.50567L329.805 11.2945ZM339.164 8.07866C342.837 7.3054 346.82 7.20424 351.123 7.79094L351.393 5.80928C346.895 5.19598 342.679 5.29482 338.752 6.12156L339.164 8.07866ZM351.123 7.79094C355.423 8.37739 359.098 9.54491 362.168 11.2717L363.148 9.52853C359.818 7.6553 355.892 6.42283 351.393 5.80928L351.123 7.79094ZM362.168 11.2717C365.28 13.0223 367.78 15.0485 369.69 17.3403L371.226 16.0599C369.136 13.5517 366.436 11.3779 363.148 9.52853L362.168 11.2717ZM369.751 17.4072C371.875 19.531 373.503 21.8352 374.65 24.3192L376.466 23.4811C375.212 20.765 373.441 18.2692 371.165 15.993L369.751 17.4072ZM374.65 24.3192C375.824 26.8629 376.593 29.1813 376.974 31.279L378.942 30.9212C378.523 28.6189 377.692 26.1374 376.466 23.481L374.65 24.3192ZM263.854 172.593C262.671 177.303 261.295 181.614 259.729 185.529L261.586 186.272C263.19 182.262 264.592 177.864 265.794 173.08L263.854 172.593ZM273.234 186.618C271.26 183.028 269.04 178.787 266.575 173.893L264.789 174.793C267.262 179.702 269.493 183.965 271.482 187.582L273.234 186.618ZM266.427 173.675C266.299 173.534 266.165 173.346 266.026 173.104L264.29 174.096C264.484 174.436 264.698 174.744 264.938 175.011L266.427 173.675ZM266.086 173.229C265.974 172.948 265.854 172.673 265.726 172.406L263.921 173.267C264.03 173.495 264.133 173.73 264.229 173.972L266.086 173.229Z" fill="black" mask="url(#path-1-outside-1_84_124)"/>
</svg>
