<?xml version="1.0" encoding="UTF-8" standalone="no"?>
<!-- Created with Inkscape (http://www.inkscape.org/) -->

<svg
   version="1.1"
   id="svg1"
   width="1255"
   height="1280"
   viewBox="0 0 1255 1280"
   sodipodi:docname="317a.svg"
   inkscape:version="1.3.2 (091e20ef0f, 2023-11-25)"
   xmlns:inkscape="http://www.inkscape.org/namespaces/inkscape"
   xmlns:sodipodi="http://sodipodi.sourceforge.net/DTD/sodipodi-0.dtd"
   xmlns="http://www.w3.org/2000/svg"
   xmlns:svg="http://www.w3.org/2000/svg">
  <defs
     id="defs1" />
  <sodipodi:namedview
     id="namedview1"
     pagecolor="#ffffff"
     bordercolor="#000000"
     borderopacity="0.25"
     inkscape:showpageshadow="2"
     inkscape:pageopacity="0.0"
     inkscape:pagecheckerboard="0"
     inkscape:deskcolor="#d1d1d1"
     showgrid="false"
     inkscape:zoom="0.62890625"
     inkscape:cx="627.2795"
     inkscape:cy="640"
     inkscape:window-width="1920"
     inkscape:window-height="1011"
     inkscape:window-x="0"
     inkscape:window-y="0"
     inkscape:window-maximized="1"
     inkscape:current-layer="layer1" />
  <g
     inkscape:groupmode="layer"
     id="layer1"
     inkscape:label="Layer 1">
    <path
       style="fill:#000000"
       d="m 589.11213,1260.3619 c -36.80942,-18.7506 -39.7831,-20.4838 -72.49798,-42.2544 -59.9981,-39.9267 -74.1353,-51.0067 -120.01149,-94.0583 -18.85607,-17.6952 -26.6201,-26.0184 -55.90144,-59.9275 l -34.00409,-39.3782 -7.66515,21.8782 c -4.21584,12.0331 -12.58519,35.9407 -18.59857,53.1282 -6.01337,17.1874 -11.15841,31.2446 -11.43341,31.2382 -0.275,-0.01 -6.11109,-8.6688 -12.96909,-19.2498 -6.85799,-10.5811 -18.15951,-28.0133 -25.11448,-38.7383 -29.09743,-44.8701 -51.14331,-89.03174 -64.0907,-128.38462 -8.67685,-26.37283 -13.63846,-50.16881 -18.30594,-87.79567 -2.38594,-19.23423 -4.52008,-35.15333 -4.74252,-35.37577 -0.22244,-0.22245 -19.05083,16.90035 -41.84086,38.05066 L 60.5,897.94971 59.778734,890.22486 C 59.382038,885.97619 57.64377,864.05 55.915916,841.5 52.023383,790.69904 52.345704,767.32502 57.577578,721 61.602073,685.36557 65.505416,666.12547 82.579109,597.76406 89.960599,568.2093 96,543.58846 96,543.0511 96,542.51373 74.609254,549.31666 48.46501,558.16871 22.320765,567.02076 0.74829481,574.08163 0.52618649,573.85952 -0.21708645,573.11625 4.9668374,544.66166 8.4289686,530.4811 22.09001,474.52679 53.495044,409.94405 91.274602,360.11357 c 4.425741,-5.83746 21.361988,-26.33684 37.636098,-45.55418 16.27412,-19.21733 29.45001,-35.41733 29.27977,-36 C 158.02023,277.97673 150.43141,261.525 141.32643,242 118.45842,192.96114 110.76923,173.78124 102.02558,143.96804 94.367242,117.85542 94.181314,116.31506 88.650454,33.159242 L 86.432893,-0.18151559 109.46645,0.24835185 C 128.86736,0.61042461 134.94451,1.1115814 148,3.4260495 c 39.17041,6.9441055 75.73015,18.6930185 110.8561,35.6249395 17.48362,8.427712 25.35321,12.886241 58.3345,33.049512 l 25.6906,15.706072 33.8094,-13.436989 C 415.52552,58.935283 439.03212,51.009639 465.11895,44.554478 498.14957,36.381084 513.87731,34.222365 599,26.178562 l 28.5,-2.693152 50,4.687084 c 51.53001,4.830509 69.93267,7.139014 91.5,11.478132 34.01648,6.843757 62.64598,15.812978 106.58586,33.39186 15.35278,6.142135 29.98139,11.98601 32.50802,12.986389 l 4.59389,1.818871 29.40611,-17.978009 C 994.34497,37.925005 1030.6456,21.71503 1075,10.520799 c 30.9604,-7.813833 50.0884,-10.48416852 75.25,-10.505158 17.9714,-0.0149914979 18.75,0.06588086 18.75,1.94753 0,9.815973 -7.3243,108.507959 -8.5373,115.036829 -2.0467,11.01597 -11.2024,41.43141 -18.2119,60.5 -6.7592,18.38758 -11.8707,30.11801 -30.6692,70.38249 -12.7906,27.39598 -14.4765,31.58796 -13.2718,33 37.7777,44.27917 55.3789,65.59181 66.1249,80.06806 37.2621,50.19706 68.8448,115.40026 82.1254,169.54945 3.461,14.1116 8.6625,42.61074 7.9138,43.35948 -0.3715,0.37148 -73.6842,-24.12471 -88.3775,-29.52985 -3.5221,-1.29562 -6.616,-2.14341 -6.8754,-1.88398 -0.2594,0.25943 5.8691,26.02779 13.6189,57.26302 14.9472,60.24405 16.713,68.16798 20.5987,92.43426 4.6765,29.20419 7.216,56.62429 8.1775,88.29567 0.5186,17.0825 0.1426,26.14945 -2.5323,61.0614 -1.7277,22.55 -3.4658,44.46707 -3.8625,48.70461 l -0.7213,7.70461 -41.4408,-38.43045 c -22.7925,-21.13674 -41.6318,-38.2395 -41.8652,-38.00612 -0.2334,0.23337 -2.3675,16.19249 -4.7424,35.46471 -3.6739,29.81187 -5.0795,38.11263 -9.4203,55.62981 -8.7331,35.24278 -17.0316,57.9402 -33.0151,90.30083 -12.6448,25.601 -24.0895,45.7009 -39.9326,70.132 -6.955,10.725 -18.2565,28.1572 -25.11451,38.7383 -6.858,10.581 -12.69409,19.2435 -12.96909,19.2498 -0.275,0.01 -5.42004,-14.0508 -11.43341,-31.2382 -6.01338,-17.1875 -14.38273,-41.0951 -18.59857,-53.1282 l -7.66515,-21.8782 -33.99371,39.3782 c -28.79983,33.3617 -37.11178,42.2946 -54.40143,58.4652 -46.02817,43.0493 -66.8541,59.4187 -122.29865,96.1282 -32.35081,21.4193 -35.83374,23.4424 -72.05357,41.8534 l -38.05956,19.3461 z M 682,1206.6905 c 92.17186,-59.513 116.58136,-78.5367 175.34824,-136.6588 l 28.84824,-28.5317 32.4153,-41.84382 32.4153,-41.84382 2.37425,5.34382 c 1.30584,2.9391 9.67208,21.31882 18.59164,40.84382 8.91956,19.525 17.30961,37.9514 18.64456,40.9476 l 2.42718,5.4476 8.56929,-17.9476 c 22.1242,-46.33676 36.3909,-85.51407 47.8679,-131.4476 11.1318,-44.55196 11.9981,-52.98157 11.9981,-116.74923 0,-28.73708 0.124,-52.24958 0.2755,-52.25 0.1516,-4.2e-4 21.7076,19.35566 47.9024,43.01351 26.1948,23.65786 47.7582,42.88297 47.9187,42.72248 0.4736,-0.4736 -5.4131,-67.66913 -7.6424,-87.23676 -6.0504,-53.10715 -20.0256,-123.37287 -32.0891,-161.34103 -10.8451,-34.13351 -27.5591,-67.9944 -48.7047,-98.6714 -4.4843,-6.50547 -8.0109,-11.9704 -7.837,-12.14428 0.1739,-0.17388 28.1041,9.8459 62.0671,22.26618 33.9631,12.42027 61.9701,22.36325 62.2379,22.0955 0.7014,-0.70141 -29.7662,-61.26836 -40.4189,-80.34935 -17.3523,-31.08097 -37.4488,-60.97443 -59.7351,-88.85562 -9.9264,-12.41837 -16.4839,-20.04434 -32.6759,-38 l -4.5088,-5 15.7941,-33 c 24.2883,-50.74749 35.8228,-78.9394 46.4377,-113.5 8.7484,-28.48348 12.3074,-44.52776 14.4653,-65.210586 C 1126.2373,66.804742 1126.3192,43 1125.1101,43 c -2.4999,0 -22.1723,4.454624 -33.6101,7.61068 -24.0651,6.640323 -47.3085,15.975398 -78.5,31.527387 -29.75124,14.833895 -48.5008,25.984193 -79.12744,47.056803 l -15.62744,10.75244 -40.87256,-15.58813 C 807.46292,97.696784 773.02506,87.450488 727,79.61883 691.24587,73.534881 671.09999,72 627,72 c -53.21793,0 -82.91453,3.111917 -130.5,13.67514 -35.10699,7.793198 -61.18658,16.21093 -121.44581,39.1992 l -39.44582,15.04816 -9.55418,-6.57866 C 273.01995,96.826451 225.92601,71.884294 181.04452,56.543005 161.8585,49.984884 129.75564,41.911027 128.37103,43.295641 c -1.27378,1.273771 -1.51162,16.4489 -0.45594,29.090004 1.56132,18.695886 5.01731,36.677035 10.97743,57.114355 12.88729,44.19063 26.70594,78.64254 54.50591,135.89116 C 199.7793,278.5313 205,289.68289 205,290.17247 c 0,0.48959 -5.06377,6.61357 -11.25281,13.60884 -29.94482,33.84565 -56.81847,70.51672 -79.30586,108.21869 -7.78378,13.05014 -47.470756,91 -46.331259,91 0.409399,0 28.549705,-10.125 62.534009,-22.5 33.98431,-12.375 61.9385,-22.5 62.12042,-22.5 0.18192,0 -3.45293,5.5125 -8.07743,12.25 -27.47668,40.03113 -43.38997,75.27662 -55.64722,123.25 -16.47786,64.49238 -25.10848,122.07461 -32.599648,217.5 l -0.667275,8.5 4.863533,-4.59911 c 4.53459,-4.28805 85.32998,-77.15563 90.10816,-81.26656 l 2.16849,-1.86567 -0.20656,50.36567 c -0.15065,36.73397 0.15432,53.4782 1.12678,61.86567 5.04238,43.4906 22.63583,106.01728 43.47245,154.5 6.89007,16.0318 22.46665,49.5564 23.54446,50.6734 0.35737,0.3703 8.27939,-15.8297 17.6045,-36 9.3251,-20.17039 18.90166,-40.85862 21.28123,-45.97389 l 4.32649,-9.30049 31.56135,41.30049 c 28.06407,36.72399 33.46254,43.22259 48.71877,58.64619 49.14097,49.6801 88.45652,83.1827 131.65742,112.1912 28.41637,19.081 111.58712,71.7194 112.46889,71.181 0.56711,-0.3462 24.65611,-15.8836 53.53111,-34.5274 z m -115.78714,-99.2683 c -3.45792,-0.7574 -9.38311,-2.6779 -13.16707,-4.2677 -14.65267,-6.1564 -17.91994,-9.1263 -76.23653,-69.2979 L 421.5,976.78806 l -8,-15.48036 -8,-15.48037 v -8.66367 c 0,-7.72638 0.52894,-10.23235 4.88916,-23.16366 6.24478,-18.52042 12.62051,-33.40677 22.07962,-51.55257 4.14217,-7.94609 10.89367,-20.89689 15.00334,-28.77956 18.80511,-36.0697 29.80902,-75.28164 32.15966,-114.59943 0.68277,-11.4203 0.67074,-11.51193 -1.31917,-10.04692 -1.10452,0.81316 -4.88921,3.6649 -8.41042,6.3372 -3.5212,2.6723 -9.40806,6.37453 -13.0819,8.22717 -8.43577,4.25401 -34.11963,11.73266 -49.41441,14.38854 -11.26029,1.95531 -43.31592,4.5758 -47.08031,3.84873 -1.00406,-0.19393 6.04943,-2.76734 15.67443,-5.7187 38.01624,-11.65709 50.66589,-17.74345 63.56159,-30.58261 9.42942,-9.38808 14.35977,-17.16707 18.49101,-29.17473 3.78499,-11.00128 1.39657,-20.2559 -6.39865,-24.7933 C 449.36928,650.22397 434.675,644.07871 419,637.8977 391.00755,626.85963 390.40106,626.56013 384.94433,621.07975 378.82952,614.93844 381.68309,621.04525 352.19767,551 l -12.83891,-30.5 -6.98843,-3.50175 c -3.84363,-1.92597 -25.18685,-11.7978 -47.42938,-21.93742 -22.24252,-10.13961 -40.59528,-18.54315 -40.7839,-18.67453 -0.18863,-0.13138 2.85857,-6.45955 6.77154,-14.06259 7.87817,-15.30756 16.58774,-28.10687 26.56404,-39.0377 5.22703,-5.72716 39.71425,-37.86692 54.9496,-51.20934 l 2.94224,-2.57667 -1.88857,3 c -1.03871,1.65 -11.99972,18.72546 -24.35781,37.94547 -19.54953,30.40456 -22.52807,35.55775 -22.92201,39.65749 -0.54437,5.66539 -2.42004,4.25687 28.9519,21.74117 23.8324,13.28234 89.54745,52.7586 99.83202,59.97096 17.91823,12.56568 34.92985,28.76414 48.67664,46.34984 11.29129,14.44449 14.23259,19.04654 17.3914,27.21113 3.16796,8.18824 12.04621,48.64286 14.39339,65.5849 6.25277,45.13272 2.36692,101.36174 -9.94663,143.9296 -1.84704,6.38519 -10.64439,34.33444 -19.54967,62.10944 -17.60702,54.91514 -18.54128,59.06641 -15.58322,69.24179 1.74328,5.99665 15.58886,26.28305 32.26332,47.27186 18.14053,22.83425 60.95406,62.99225 82.61923,77.49475 11.34654,7.5953 23.89176,10.3999 35.93556,8.0338 3.46499,-0.6808 6.58835,-1.415 6.9408,-1.6315 0.35244,-0.2166 -1.10841,-2.3101 -3.24635,-4.6522 -2.13793,-2.3422 -5.16159,-5.6829 -6.71923,-7.4238 -2.70206,-3.0199 -5.96254,-4.3409 -14.17524,-5.743 -6.71071,-1.1457 -9.41825,-3.7667 -14.39997,-13.9399 -7.18534,-14.6732 -14.0462,-20.5462 -27.60003,-23.6261 -13.02141,-2.9589 -19.56196,-10.4839 -21.96055,-25.266 -1.80154,-11.10257 1.7643,-23.49678 8.77791,-30.51039 6.28737,-6.28738 20.64902,-11.2839 46.63852,-16.22588 39.1984,-7.4537 61.93566,-7.68601 96.09579,-0.98181 28.13169,5.52107 40.30856,10.05391 48.19536,17.9407 10.56373,10.56373 11.42335,31.92804 1.79271,44.55448 -3.49769,4.5857 -9.39814,7.8316 -19.03974,10.4741 -16.52088,4.5279 -20.19802,8.7269 -22.99667,26.2605 -1.2375,7.7529 -6.9707,11.6026 -19.7106,13.2351 -6.25209,0.8012 -9.79273,4.7594 -9.79273,10.9478 0,2.603 -0.59215,4.7923 -1.5,5.5457 -0.825,0.6847 -1.5,1.6074 -1.5,2.0505 0,1.5489 11.31972,2.2363 17.64253,1.0713 8.77972,-1.6178 14.54057,-4.3103 24.35747,-11.3845 38.17852,-27.5118 65.53878,-55.459 95.85188,-97.90831 14.1476,-19.81175 15.57827,-22.88482 15.51625,-33.32899 -0.0448,-7.55008 -0.98856,-10.92449 -16.78031,-60 -21.95016,-68.2138 -26.28311,-85.11591 -30.12179,-117.5 -4.76585,-40.20597 -2.51457,-75.93444 7.93937,-126 6.39134,-30.60916 6.39363,-30.61462 20.9288,-50 15.62232,-20.83529 35.21403,-39.71827 54.68082,-52.70274 13.92214,-9.28615 78.32866,-47.82059 103.31971,-61.81621 C 966.28935,455.94581 968,454.5659 968,448.16467 c 0,-2.13594 -6.50424,-12.96805 -23.89806,-39.79966 -13.14393,-20.27576 -23.75767,-37.01377 -23.58608,-37.1956 0.17159,-0.18182 12.16321,10.49879 26.64806,23.7347 34.89064,31.88222 41.38726,39.81417 53.91148,65.82245 3.8085,7.90889 6.9239,14.69337 6.923,15.07662 -9e-4,0.38325 -13.80737,6.99682 -30.68112,14.69682 -16.87375,7.7 -38.13554,17.42621 -47.24842,21.6138 L 913.5,519.72761 893,568.1138 c -19.60111,46.26455 -20.71924,48.60544 -25.5,53.3862 -4.77859,4.77859 -6.37486,5.54176 -36.04787,17.2343 -32.79767,12.92381 -34.79685,14.05707 -37.89908,21.48358 -2.22503,5.32654 -1.9511,8.57751 1.53436,18.21005 7.04149,19.46011 20.72453,34.07098 40.43656,43.17849 6.1883,2.85918 30.20391,11.17738 55.47603,19.21504 2.78761,0.88659 0.65044,1.00829 -10.5,0.59795 C 837.93386,739.85295 798.94853,728.91769 779.20181,713.00559 775.78527,710.25252 772.71865,708 772.38709,708 c -0.91711,0 0.59712,18.95147 2.63924,33.0315 5.44077,37.51312 16.50396,69.53229 36.42115,105.41042 15.81275,28.48453 23.52445,46.02651 32.55701,74.05808 2.30287,7.14672 3.23188,11.94522 3.25595,16.81746 0.0323,6.54205 -0.29075,7.47123 -7.99676,23 l -8.03045,16.18254 -53.42439,55 c -29.38341,30.25 -55.74403,57.0786 -58.57915,59.6191 -6.01285,5.388 -17.78755,11.7319 -27.72969,14.94 -6.01624,1.9413 -9.74048,2.3187 -26.5,2.6854 l -19.5,0.4267 -9.25,-6.6842 -9.25,-6.6842 v -6.1014 c 0,-7.5436 -1.75187,-6.5617 -2.19272,1.2289 l -0.30728,5.4303 -8.5,6.2508 -8.5,6.2508 -17.5,-0.032 c -11.03402,-0.02 -19.823,-0.5403 -23.78714,-1.4085 z m -22.65402,-106.1754 c 0.0874,-5.56941 1.14268,-8.73863 4.06666,-12.21358 5.30693,-6.30693 16.98755,-9.99384 31.73972,-10.01844 L 588.23045,979 587.5753,973.25 C 586.03572,959.73748 585.84819,959 583.95183,959 c -5.36379,0 -29.61624,6.84879 -37.49983,10.5898 -7.44679,3.53374 -13.50395,15.78985 -11.4935,23.25608 1.02971,3.82405 6.37732,12.15702 7.79777,12.15092 0.40905,-0 0.77021,-1.6892 0.80257,-3.75 z m 72.28837,-20.34338 c 5.10875,-1.78092 5.91653,-9.03648 1.71923,-15.44236 -3.19342,-4.87378 -19.65305,-8.47148 -22.58651,-4.93688 -1.63469,1.96968 -0.68026,16.20406 1.21348,18.0978 1.19468,1.19468 8.9929,2.95982 14.40737,3.26112 1.15542,0.0643 3.51632,-0.37656 5.24643,-0.97968 z M 468.34334,628.25 c -3.41265,-8.23197 -15.54385,-31.19066 -20.29016,-38.3998 -5.74194,-8.7214 -10.7968,-13.54618 -27.05318,-25.82184 -14.37106,-10.85199 -42.10347,-30.25822 -42.57154,-29.79016 -0.19232,0.19233 0.0792,4.49479 0.60331,9.56103 3.73768,36.12716 17.10293,61.36699 39.15439,73.94172 11.96852,6.82498 35.85544,13.87438 48.01281,14.16931 L 469.89795,632 Z m 335.9068,0.63503 c 23.75726,-4.68549 41.10916,-14.2257 51.48717,-28.30803 10.73889,-14.57205 17.72204,-35.34989 19.82397,-58.98475 0.58596,-6.58879 0.46827,-7.81757 -0.70563,-7.3671 C 872.62167,535.08241 850.76196,550.34068 836,561.34674 818.68886,574.25338 811.87803,580.70762 805.76368,590 800.53306,597.94932 785,628.19567 785,630.43155 c 0,1.6289 5.31429,1.20196 19.25014,-1.54652 z m 217.74746,-386.0263 c -4.0794,-5.1473 -16.3228,-18.32006 -27.2074,-29.27279 C 983.90559,202.63321 975,193.49602 975,193.28107 c 0,-1.11105 9.16204,-13.79163 15.11299,-20.91691 20.21641,-24.20583 63.51071,-55.40777 91.49821,-65.94222 3.6539,-1.37534 6.7793,-2.36482 6.9452,-2.19885 0.4777,0.47763 -2.3046,14.28962 -4.5633,22.65366 -4.9134,18.19499 -18.0259,55.43661 -26.2741,74.62325 -7.5469,17.55509 -20.0591,40.61158 -25.9718,47.85873 l -2.3323,2.85873 z M 216.39619,241.74648 C 201.86743,218.26289 187.30773,188.32073 173.48536,153.5 c -4.58487,-11.55 -9.00246,-24.375 -9.81688,-28.5 -1.82524,-9.24482 -3.05,-21 -2.18796,-21 1.54412,0 28.33221,11.81828 42.01948,18.53801 17.77397,8.72609 24.40135,12.96374 35.63811,22.7876 9.24828,8.0854 24.88982,25.94809 34.47131,39.36635 l 6.19152,8.67081 -6.65047,4.9482 c -18.6876,13.90427 -37.39407,32.28906 -46.1034,45.31058 l -4.9303,7.37141 z"
       id="path1" />
  </g>
</svg>
